ter-u12n.sfdir
StartChar: exclam
Encoding: 33 33 2
Width: 24
VWidth: 0
Flags: MW
LayerCount: 4
Back
Fore
SplineSet
9 8 m 29,0,-1
 12 8 l 25,1,-1
 12 0 l 25,2,-1
 9 0 l 29,3,-1
 9 8 l 29,0,-1
9 32 m 29,4,-1
 12 32 l 25,5,-1
 12 12 l 25,6,-1
 9 12 l 29,7,-1
 9 32 l 29,4,-1
EndSplineSet
Layer: 2
SplineSet
8 8 m 25,0,-1
 12 8 l 25,1,-1
 12 0 l 25,2,-1
 8 0 l 25,3,-1
 8 8 l 25,0,-1
8 32 m 25,4,-1
 12 32 l 25,5,-1
 12 12 l 25,6,-1
 8 12 l 25,7,-1
 8 32 l 25,4,-1
EndSplineSet
Layer: 3
SplineSet
8 8 m 25,0,-1
 12 8 l 25,1,-1
 12 0 l 25,2,-1
 8 0 l 25,3,-1
 8 8 l 25,0,-1
8 32 m 25,4,-1
 12 32 l 25,5,-1
 12 12 l 25,6,-1
 8 12 l 25,7,-1
 8 32 l 25,4,-1
EndSplineSet
EndChar
StartChar: numbersign
Encoding: 35 35 4
Width: 24
VWidth: 0
Flags: MW
LayerCount: 3
Back
Fore
SplineSet
8 20 m 25,0,-1
 8 12 l 25,1,-1
 12 12 l 25,2,-1
 12 20 l 25,3,-1
 8 20 l 25,0,-1
4 32 m 25,4,-1
 8 32 l 25,5,-1
 8 24 l 25,6,-1
 12 24 l 25,7,-1
 12 32 l 29,8,-1
 16 32 l 25,9,-1
 16 24 l 25,10,-1
 20 24 l 25,11,-1
 20 20 l 25,12,-1
 16 20 l 25,13,-1
 16 12 l 25,14,-1
 20 12 l 25,15,-1
 20 8 l 25,16,-1
 16 8 l 25,17,-1
 16 0 l 25,18,-1
 12 0 l 25,19,-1
 12 8 l 25,20,-1
 8 8 l 25,21,-1
 8 0 l 25,22,-1
 4 0 l 25,23,-1
 4 8 l 25,24,-1
 0 8 l 25,25,-1
 0 12 l 25,26,-1
 4 12 l 25,27,-1
 4 20 l 25,28,-1
 0 20 l 25,29,-1
 0 24 l 25,30,-1
 4 24 l 25,31,-1
 4 32 l 25,4,-1
EndSplineSet
Layer: 2
SplineSet
8 20 m 25,0,-1
 8 12 l 25,1,-1
 12 12 l 25,2,-1
 12 20 l 25,3,-1
 8 20 l 25,0,-1
4 32 m 25,4,-1
 8 32 l 25,5,-1
 8 24 l 25,6,-1
 12 24 l 25,7,-1
 12 32 l 29,8,-1
 16 32 l 25,9,-1
 16 24 l 25,10,-1
 20 24 l 25,11,-1
 20 20 l 25,12,-1
 16 20 l 25,13,-1
 16 12 l 25,14,-1
 20 12 l 25,15,-1
 20 8 l 25,16,-1
 16 8 l 25,17,-1
 16 0 l 25,18,-1
 12 0 l 25,19,-1
 12 8 l 25,20,-1
 8 8 l 25,21,-1
 8 0 l 25,22,-1
 4 0 l 25,23,-1
 4 8 l 25,24,-1
 0 8 l 25,25,-1
 0 12 l 25,26,-1
 4 12 l 25,27,-1
 4 20 l 25,28,-1
 0 20 l 25,29,-1
 0 24 l 25,30,-1
 4 24 l 25,31,-1
 4 32 l 25,4,-1
EndSplineSet
EndChar
StartChar: dollar
Encoding: 36 36 5
Width: 24
VWidth: 0
Flags: MWO
LayerCount: 4
Back
Fore
SplineSet
11 12 m 29,0,-1
 11 4 l 29,1,-1
 14 4 l 25,2,-1
 16 6 l 25,3,-1
 16 10 l 25,4,-1
 14 12 l 25,5,-1
 11 12 l 29,0,-1
8 24 m 25,6,-1
 6 24 l 25,7,-1
 4 22 l 25,8,-1
 4 18 l 25,9,-1
 6 16 l 25,10,-1
 8 16 l 25,11,-1
 8 24 l 25,6,-1
11 32 m 29,12,-1
 11 28 l 29,13,-1
 15 28 l 25,14,-1
 20 23 l 25,15,-1
 20 20 l 25,16,-1
 16 20 l 25,17,-1
 16 22 l 25,18,-1
 14 24 l 25,19,-1
 11 24 l 29,20,-1
 11 16 l 29,21,-1
 15 16 l 25,22,-1
 20 11 l 25,23,-1
 20 5 l 25,24,-1
 15 0 l 25,25,-1
 11 0 l 29,26,-1
 11 -4 l 29,27,-1
 8 -4 l 25,28,-1
 8 0 l 25,29,-1
 5 0 l 25,30,-1
 0 5 l 25,31,-1
 0 8 l 25,32,-1
 4 8 l 25,33,-1
 4 6 l 25,34,-1
 6 4 l 25,35,-1
 8 4 l 25,36,-1
 8 12 l 25,37,-1
 5 12 l 25,38,-1
 0 17 l 25,39,-1
 0 23 l 25,40,-1
 5 28 l 25,41,-1
 8 28 l 25,42,-1
 8 32 l 25,43,-1
 11 32 l 29,12,-1
EndSplineSet
Layer: 2
SplineSet
12 12 m 25,0,-1
 12 4 l 25,1,-1
 15 4 l 25,2,-1
 16 5 l 25,3,-1
 16 11 l 25,4,-1
 15 12 l 25,5,-1
 12 12 l 25,0,-1
8 24 m 25,6,-1
 5 24 l 25,7,-1
 4 23 l 25,8,-1
 4 17 l 25,9,-1
 5 16 l 25,10,-1
 8 16 l 25,11,-1
 8 24 l 25,6,-1
12 32 m 25,12,-1
 12 28 l 25,13,-1
 16 28 l 25,14,-1
 16 25 l 29,15,-1
 17 24 l 25,16,-1
 20 24 l 25,17,-1
 20 20 l 25,18,-1
 16 20 l 25,19,-1
 16 23 l 25,20,-1
 15 24 l 25,21,-1
 12 24 l 25,22,-1
 12 16 l 25,23,-1
 16 16 l 25,24,-1
 16 13 l 25,25,-1
 17 12 l 25,26,-1
 20 12 l 25,27,-1
 20 4 l 25,28,-1
 17 4 l 25,29,-1
 16 3 l 25,30,-1
 16 0 l 25,31,-1
 12 0 l 25,32,-1
 12 -4 l 25,33,-1
 8 -4 l 25,34,-1
 8 0 l 25,35,-1
 4 0 l 25,36,-1
 4 3 l 25,37,-1
 3 4 l 25,38,-1
 0 4 l 25,39,-1
 0 8 l 25,40,-1
 4 8 l 25,41,-1
 4 5 l 25,42,-1
 5 4 l 25,43,-1
 8 4 l 25,44,-1
 8 12 l 25,45,-1
 4 12 l 25,46,-1
 4 15 l 25,47,-1
 3 16 l 25,48,-1
 0 16 l 25,49,-1
 0 24 l 25,50,-1
 3 24 l 25,51,-1
 4 25 l 25,52,-1
 4 28 l 25,53,-1
 8 28 l 25,54,-1
 8 32 l 25,55,-1
 12 32 l 25,12,-1
EndSplineSet
Layer: 3
SplineSet
12 12 m 25,0,-1
 12 4 l 25,1,-1
 14 4 l 25,2,-1
 16 6 l 25,3,-1
 16 10 l 25,4,-1
 14 12 l 25,5,-1
 12 12 l 25,0,-1
8 24 m 25,6,-1
 6 24 l 25,7,-1
 4 22 l 25,8,-1
 4 18 l 25,9,-1
 6 16 l 25,10,-1
 8 16 l 25,11,-1
 8 24 l 25,6,-1
12 32 m 25,12,-1
 12 28 l 25,13,-1
 15 28 l 25,14,-1
 20 23 l 25,15,-1
 20 20 l 25,16,-1
 16 20 l 25,17,-1
 16 22 l 25,18,-1
 14 24 l 25,19,-1
 12 24 l 25,20,-1
 12 16 l 25,21,-1
 15 16 l 25,22,-1
 20 11 l 25,23,-1
 20 5 l 25,24,-1
 15 0 l 25,25,-1
 12 0 l 25,26,-1
 12 -4 l 25,27,-1
 8 -4 l 25,28,-1
 8 0 l 25,29,-1
 5 0 l 25,30,-1
 0 5 l 25,31,-1
 0 8 l 25,32,-1
 4 8 l 25,33,-1
 4 6 l 25,34,-1
 6 4 l 25,35,-1
 8 4 l 25,36,-1
 8 12 l 25,37,-1
 5 12 l 25,38,-1
 0 17 l 25,39,-1
 0 23 l 25,40,-1
 5 28 l 25,41,-1
 8 28 l 25,42,-1
 8 32 l 29,43,-1
 12 32 l 25,12,-1
EndSplineSet
EndChar
StartChar: percent
Encoding: 37 37 6
Width: 24
VWidth: 0
Flags: MW
LayerCount: 4
Back
Fore
SplineSet
6 29 m 25,0,-1
 9 26 l 25,1,-1
 6 23 l 25,2,-1
 3 26 l 25,3,-1
 6 29 l 25,0,-1
0 27 m 25,4,-1
 0 25 l 25,5,-1
 5 20 l 25,6,-1
 7 20 l 25,7,-1
 12 25 l 25,8,-1
 12 27 l 25,9,-1
 7 32 l 25,10,-1
 5 32 l 25,11,-1
 0 27 l 25,4,-1
16 32 m 9,12,-1
 20 32 l 25,13,-1
 20 24 l 25,14,-1
 17 24 l 25,15,-1
 16 23 l 25,16,-1
 16 16 l 25,17,-1
 13 16 l 25,18,-1
 12 15 l 25,19,-1
 12 8 l 25,20,-1
 9 8 l 25,21,-1
 8 7 l 25,22,-1
 8 0 l 25,23,-1
 4 0 l 25,24,-1
 4 8 l 25,25,-1
 7 8 l 25,26,-1
 8 9 l 25,27,-1
 8 16 l 25,28,-1
 11 16 l 25,29,-1
 12 17 l 21,30,-1
 12 24 l 1,31,-1
 15 24 l 1,32,-1
 16 25 l 1,33,-1
 16 32 l 9,12,-1
18 9 m 25,34,-1
 21 6 l 25,35,-1
 18 3 l 25,36,-1
 15 6 l 25,37,-1
 18 9 l 25,34,-1
12 7 m 25,38,-1
 12 5 l 25,39,-1
 17 0 l 25,40,-1
 19 0 l 25,41,-1
 24 5 l 25,42,-1
 24 7 l 25,43,-1
 19 12 l 25,44,-1
 17 12 l 25,45,-1
 12 7 l 25,38,-1
EndSplineSet
Layer: 2
SplineSet
8 27 m 9,0,-1
 8 25 l 17,1,-1
 7 24 l 1,2,-1
 5 24 l 1,3,-1
 4 25 l 1,4,-1
 4 27 l 1,5,-1
 5 28 l 1,6,-1
 7 28 l 1,7,-1
 8 27 l 9,0,-1
0 28 m 9,8,-1
 0 24 l 17,9,-1
 3 24 l 1,10,-1
 4 23 l 1,11,-1
 4 20 l 9,12,-1
 8 20 l 17,13,-1
 8 23 l 1,14,-1
 9 24 l 1,15,-1
 12 24 l 9,16,-1
 12 28 l 17,17,-1
 9 28 l 1,18,-1
 8 29 l 1,19,-1
 8 32 l 9,20,-1
 4 32 l 17,21,-1
 4 29 l 1,22,-1
 3 28 l 1,23,-1
 0 28 l 9,8,-1
16 32 m 25,24,-1
 20 32 l 25,25,-1
 20 24 l 25,26,-1
 17 24 l 25,27,-1
 16 23 l 25,28,-1
 16 16 l 25,29,-1
 13 16 l 25,30,-1
 12 15 l 17,31,-1
 12 9 l 1,32,-1
 11 8 l 9,33,-1
 9 8 l 25,34,-1
 8 7 l 25,35,-1
 8 0 l 25,36,-1
 4 0 l 25,37,-1
 4 8 l 25,38,-1
 7 8 l 25,39,-1
 8 9 l 17,40,-1
 8 16 l 1,41,-1
 11 16 l 1,42,-1
 12 17 l 1,43,-1
 12 23 l 1,44,-1
 13 24 l 5,45,-1
 15 24 l 9,46,-1
 16 25 l 25,47,-1
 16 32 l 25,24,-1
19 8 m 1,48,-1
 20 7 l 1,49,-1
 20 5 l 1,50,-1
 19 4 l 1,51,-1
 17 4 l 1,52,-1
 16 5 l 1,53,-1
 16 7 l 1,54,-1
 17 8 l 1,55,-1
 19 8 l 1,48,-1
12 8 m 9,56,-1
 12 4 l 17,57,-1
 15 4 l 1,58,-1
 16 3 l 1,59,-1
 16 0 l 9,60,-1
 20 0 l 17,61,-1
 20 3 l 1,62,-1
 21 4 l 1,63,-1
 24 4 l 9,64,-1
 24 8 l 17,65,-1
 21 8 l 1,66,-1
 20 9 l 1,67,-1
 20 12 l 9,68,-1
 16 12 l 17,69,-1
 16 9 l 1,70,-1
 15 8 l 1,71,-1
 12 8 l 9,56,-1
EndSplineSet
Layer: 3
SplineSet
6 29 m 25,0,-1
 9 26 l 25,1,-1
 6 23 l 25,2,-1
 3 26 l 25,3,-1
 6 29 l 25,0,-1
0 27 m 25,4,-1
 0 25 l 25,5,-1
 5 20 l 25,6,-1
 7 20 l 25,7,-1
 12 25 l 25,8,-1
 12 27 l 25,9,-1
 7 32 l 25,10,-1
 5 32 l 25,11,-1
 0 27 l 25,4,-1
16 32 m 9,12,-1
 20 32 l 25,13,-1
 20 24 l 25,14,-1
 17 24 l 25,15,-1
 16 23 l 25,16,-1
 16 16 l 25,17,-1
 13 16 l 25,18,-1
 12 15 l 25,19,-1
 12 8 l 25,20,-1
 9 8 l 25,21,-1
 8 7 l 25,22,-1
 8 0 l 25,23,-1
 4 0 l 25,24,-1
 4 8 l 25,25,-1
 7 8 l 25,26,-1
 8 9 l 25,27,-1
 8 16 l 25,28,-1
 11 16 l 25,29,-1
 12 17 l 21,30,-1
 12 24 l 1,31,-1
 15 24 l 1,32,-1
 16 25 l 1,33,-1
 16 32 l 9,12,-1
18 9 m 25,34,-1
 21 6 l 25,35,-1
 18 3 l 25,36,-1
 15 6 l 25,37,-1
 18 9 l 25,34,-1
12 7 m 25,38,-1
 12 5 l 25,39,-1
 17 0 l 25,40,-1
 19 0 l 25,41,-1
 24 5 l 25,42,-1
 24 7 l 25,43,-1
 19 12 l 25,44,-1
 17 12 l 25,45,-1
 12 7 l 25,38,-1
EndSplineSet
EndChar
StartChar: ampersand
Encoding: 38 38 7
Width: 24
VWidth: 0
Flags: MW
LayerCount: 4
Back
Fore
SplineSet
10 28 m 25,0,-1
 8 27 l 25,1,-1
 8 21 l 25,2,-1
 10 20 l 25,3,-1
 12 21 l 25,4,-1
 12 27 l 25,5,-1
 10 28 l 25,0,-1
6 12 m 1,6,-1
 4 10 l 25,7,-1
 4 6 l 25,8,-1
 6 4 l 25,9,-1
 10 4 l 25,10,-1
 12 6 l 25,11,-1
 12 10 l 25,12,-1
 10 12 l 1,13,-1
 6 12 l 1,6,-1
9 32 m 25,14,-1
 11 32 l 17,15,-1
 16 27 l 25,16,-1
 16 21 l 25,17,-1
 12 17 l 1,18,-1
 12 16 l 1,19,-1
 14 14 l 1,20,-1
 15 14 l 1,21,-1
 17 16 l 1,22,-1
 20 13 l 1,23,-1
 16 9 l 25,24,-1
 16 7 l 25,25,-1
 20 3 l 25,26,-1
 17 0 l 25,27,-1
 15 2 l 25,28,-1
 13 2 l 25,29,-1
 11 0 l 25,30,-1
 5 0 l 25,31,-1
 0 5 l 25,32,-1
 0 11 l 17,33,-1
 5 16 l 1,34,-1
 7 18 l 9,35,-1
 4 21 l 25,36,-1
 4 27 l 25,37,-1
 9 32 l 25,14,-1
EndSplineSet
Layer: 2
SplineSet
11 28 m 25,0,-1
 9 28 l 25,1,-1
 8 27 l 25,2,-1
 8 21 l 25,3,-1
 9 20 l 25,4,-1
 11 20 l 25,5,-1
 12 21 l 25,6,-1
 12 27 l 25,7,-1
 11 28 l 25,0,-1
5 12 m 1,8,-1
 4 11 l 25,9,-1
 4 5 l 25,10,-1
 5 4 l 25,11,-1
 11 4 l 25,12,-1
 12 5 l 25,13,-1
 12 11 l 25,14,-1
 11 12 l 1,15,-1
 5 12 l 1,8,-1
8 32 m 25,16,-1
 12 32 l 17,17,-1
 12 29 l 1,18,-1
 13 28 l 9,19,-1
 16 28 l 25,20,-1
 16 20 l 25,21,-1
 13 20 l 17,22,-1
 12 19 l 1,23,-1
 12 13 l 1,24,-1
 13 12 l 9,25,-1
 15 12 l 25,26,-1
 16 13 l 25,27,-1
 16 16 l 25,28,-1
 20 16 l 25,29,-1
 20 12 l 25,30,-1
 17 12 l 25,31,-1
 16 11 l 25,32,-1
 16 5 l 25,33,-1
 17 4 l 25,34,-1
 20 4 l 25,35,-1
 20 0 l 25,36,-1
 16 0 l 25,37,-1
 16 3 l 25,38,-1
 15 4 l 25,39,-1
 13 4 l 25,40,-1
 12 3 l 25,41,-1
 12 0 l 25,42,-1
 4 0 l 25,43,-1
 4 3 l 25,44,-1
 3 4 l 25,45,-1
 0 4 l 25,46,-1
 0 12 l 25,47,-1
 3 12 l 25,48,-1
 4 13 l 25,49,-1
 4 16 l 25,50,-1
 7 16 l 25,51,-1
 8 17 l 25,52,-1
 8 19 l 25,53,-1
 7 20 l 25,54,-1
 4 20 l 25,55,-1
 4 28 l 25,56,-1
 7 28 l 25,57,-1
 8 29 l 25,58,-1
 8 32 l 25,16,-1
EndSplineSet
Layer: 3
SplineSet
10 28 m 25,0,-1
 8 27 l 25,1,-1
 8 21 l 25,2,-1
 10 20 l 25,3,-1
 12 21 l 25,4,-1
 12 27 l 25,5,-1
 10 28 l 25,0,-1
6 12 m 1,6,-1
 4 10 l 25,7,-1
 4 6 l 25,8,-1
 6 4 l 25,9,-1
 10 4 l 25,10,-1
 12 6 l 25,11,-1
 12 10 l 25,12,-1
 10 12 l 1,13,-1
 6 12 l 1,6,-1
9 32 m 25,14,-1
 11 32 l 17,15,-1
 16 27 l 25,16,-1
 16 21 l 25,17,-1
 12 17 l 1,18,-1
 12 16 l 1,19,-1
 14 14 l 1,20,-1
 15 14 l 1,21,-1
 17 16 l 1,22,-1
 20 13 l 1,23,-1
 16 9 l 25,24,-1
 16 7 l 25,25,-1
 20 3 l 25,26,-1
 17 0 l 25,27,-1
 15 2 l 25,28,-1
 13 2 l 25,29,-1
 11 0 l 25,30,-1
 5 0 l 25,31,-1
 0 5 l 25,32,-1
 0 11 l 17,33,-1
 5 16 l 1,34,-1
 7 18 l 9,35,-1
 4 21 l 25,36,-1
 4 27 l 25,37,-1
 9 32 l 25,14,-1
EndSplineSet
EndChar
StartChar: quotesingle
Encoding: 39 39 8
Width: 24
VWidth: 0
Flags: MW
LayerCount: 3
Back
Fore
SplineSet
8 36 m 29,0,-1
 12 36 l 25,1,-1
 12 24 l 25,2,-1
 8 24 l 25,3,-1
 8 36 l 29,0,-1
EndSplineSet
Layer: 2
SplineSet
8 36 m 29,0,-1
 12 36 l 25,1,-1
 12 24 l 25,2,-1
 8 24 l 25,3,-1
 8 36 l 29,0,-1
EndSplineSet
EndChar
StartChar: parenleft
Encoding: 40 40 9
Width: 24
VWidth: 0
Flags: MW
LayerCount: 4
Back
Fore
SplineSet
16 28 m 29,0,-1
 14 28 l 29,1,-1
 8 22 l 29,2,-1
 8 10 l 29,3,-1
 14 4 l 21,4,-1
 16 4 l 5,5,-1
 16 0 l 13,6,-1
 13 0 l 29,7,-1
 4 9 l 29,8,-1
 4 23 l 29,9,-1
 13 32 l 29,10,-1
 16 32 l 29,11,-1
 16 28 l 29,0,-1
EndSplineSet
Layer: 2
SplineSet
16 32 m 29,0,-1
 16 28 l 25,1,-1
 13 28 l 25,2,-1
 12 27 l 25,3,-1
 12 24 l 25,4,-1
 9 24 l 25,5,-1
 8 23 l 25,6,-1
 8 9 l 25,7,-1
 9 8 l 25,8,-1
 12 8 l 25,9,-1
 12 5 l 25,10,-1
 13 4 l 25,11,-1
 16 4 l 25,12,-1
 16 0 l 25,13,-1
 12 0 l 25,14,-1
 12 3 l 25,15,-1
 11 4 l 25,16,-1
 8 4 l 25,17,-1
 8 7 l 25,18,-1
 7 8 l 25,19,-1
 4 8 l 25,20,-1
 4 24 l 25,21,-1
 7 24 l 25,22,-1
 8 25 l 25,23,-1
 8 28 l 25,24,-1
 11 28 l 25,25,-1
 12 29 l 25,26,-1
 12 32 l 25,27,-1
 16 32 l 29,0,-1
EndSplineSet
Layer: 3
SplineSet
16 28 m 29,0,-1
 14 28 l 29,1,-1
 8 22 l 29,2,-1
 8 10 l 29,3,-1
 14 4 l 21,4,-1
 16 4 l 5,5,-1
 16 0 l 13,6,-1
 13 0 l 29,7,-1
 4 9 l 29,8,-1
 4 23 l 29,9,-1
 13 32 l 29,10,-1
 16 32 l 29,11,-1
 16 28 l 29,0,-1
EndSplineSet
EndChar
StartChar: parenright
Encoding: 41 41 10
Width: 24
VWidth: 0
Flags: MW
LayerCount: 3
Back
Fore
SplineSet
4 4 m 25,0,-1
 6 4 l 25,1,-1
 12 10 l 25,2,-1
 12 22 l 25,3,-1
 6 28 l 17,4,-1
 4 28 l 1,5,-1
 4 32 l 9,6,-1
 7 32 l 25,7,-1
 16 23 l 25,8,-1
 16 9 l 25,9,-1
 7 0 l 25,10,-1
 4 0 l 25,11,-1
 4 4 l 25,0,-1
EndSplineSet
Layer: 2
SplineSet
4 32 m 29,0,-1
 8 32 l 25,1,-1
 8 29 l 25,2,-1
 9 28 l 25,3,-1
 12 28 l 25,4,-1
 12 25 l 25,5,-1
 13 24 l 25,6,-1
 16 24 l 25,7,-1
 16 8 l 25,8,-1
 13 8 l 25,9,-1
 12 7 l 25,10,-1
 12 4 l 25,11,-1
 9 4 l 25,12,-1
 8 3 l 25,13,-1
 8 0 l 25,14,-1
 4 0 l 25,15,-1
 4 4 l 25,16,-1
 7 4 l 25,17,-1
 8 5 l 25,18,-1
 8 8 l 25,19,-1
 11 8 l 25,20,-1
 12 9 l 25,21,-1
 12 23 l 25,22,-1
 11 24 l 25,23,-1
 8 24 l 25,24,-1
 8 27 l 25,25,-1
 7 28 l 25,26,-1
 4 28 l 25,27,-1
 4 32 l 29,0,-1
EndSplineSet
EndChar
StartChar: asterisk
Encoding: 42 42 11
Width: 24
VWidth: 0
Flags: MW
LayerCount: 3
Back
Fore
SplineSet
4 22 m 29,0,-1
 6 24 l 25,1,-1
 10 20 l 25,2,-1
 14 24 l 25,3,-1
 16 22 l 25,4,-1
 12 18 l 25,5,-1
 12 16 l 25,6,-1
 20 16 l 25,7,-1
 20 12 l 25,8,-1
 12 12 l 25,9,-1
 12 10 l 25,10,-1
 16 6 l 25,11,-1
 14 4 l 25,12,-1
 10 8 l 25,13,-1
 6 4 l 25,14,-1
 4 6 l 25,15,-1
 8 10 l 25,16,-1
 8 12 l 25,17,-1
 0 12 l 25,18,-1
 0 16 l 25,19,-1
 8 16 l 25,20,-1
 8 18 l 25,21,-1
 4 22 l 29,0,-1
EndSplineSet
Layer: 2
SplineSet
4 24 m 29,0,-1
 8 24 l 25,1,-1
 8 21 l 25,2,-1
 9 20 l 25,3,-1
 11 20 l 25,4,-1
 12 21 l 25,5,-1
 12 24 l 25,6,-1
 16 24 l 25,7,-1
 16 20 l 25,8,-1
 13 20 l 25,9,-1
 12 19 l 25,10,-1
 12 16 l 25,11,-1
 20 16 l 25,12,-1
 20 12 l 25,13,-1
 12 12 l 25,14,-1
 12 9 l 25,15,-1
 13 8 l 25,16,-1
 16 8 l 25,17,-1
 16 4 l 25,18,-1
 12 4 l 25,19,-1
 12 7 l 25,20,-1
 11 8 l 25,21,-1
 9 8 l 25,22,-1
 8 7 l 25,23,-1
 8 4 l 25,24,-1
 4 4 l 25,25,-1
 4 8 l 25,26,-1
 7 8 l 25,27,-1
 8 9 l 25,28,-1
 8 12 l 25,29,-1
 0 12 l 25,30,-1
 0 16 l 25,31,-1
 8 16 l 25,32,-1
 8 19 l 25,33,-1
 7 20 l 25,34,-1
 4 20 l 25,35,-1
 4 24 l 29,0,-1
EndSplineSet
EndChar
StartChar: plus
Encoding: 43 43 12
Width: 24
VWidth: 0
Flags: MW
LayerCount: 3
Back
Fore
SplineSet
8 24 m 29,0,-1
 12 24 l 25,1,-1
 12 16 l 25,2,-1
 20 16 l 25,3,-1
 20 12 l 25,4,-1
 12 12 l 25,5,-1
 12 4 l 25,6,-1
 8 4 l 25,7,-1
 8 12 l 25,8,-1
 0 12 l 25,9,-1
 0 16 l 25,10,-1
 8 16 l 25,11,-1
 8 24 l 29,0,-1
EndSplineSet
Layer: 2
SplineSet
8 24 m 29,0,-1
 12 24 l 25,1,-1
 12 16 l 25,2,-1
 20 16 l 25,3,-1
 20 12 l 25,4,-1
 12 12 l 25,5,-1
 12 4 l 25,6,-1
 8 4 l 25,7,-1
 8 12 l 25,8,-1
 0 12 l 25,9,-1
 0 16 l 25,10,-1
 8 16 l 25,11,-1
 8 24 l 29,0,-1
EndSplineSet
EndChar
StartChar: comma
Encoding: 44 44 13
Width: 24
VWidth: 0
Flags: MW
LayerCount: 3
Back
Fore
SplineSet
8 8 m 29,0,-1
 12 8 l 25,1,-1
 12 0 l 25,2,-1
 9 0 l 25,3,-1
 8 -1 l 25,4,-1
 8 -4 l 25,5,-1
 4 -4 l 25,6,-1
 4 0 l 25,7,-1
 7 0 l 25,8,-1
 8 1 l 25,9,-1
 8 8 l 29,0,-1
EndSplineSet
Layer: 2
SplineSet
8 8 m 29,0,-1
 12 8 l 25,1,-1
 12 0 l 25,2,-1
 9 0 l 25,3,-1
 8 -1 l 25,4,-1
 8 -4 l 25,5,-1
 4 -4 l 25,6,-1
 4 0 l 25,7,-1
 7 0 l 25,8,-1
 8 1 l 25,9,-1
 8 8 l 29,0,-1
EndSplineSet
EndChar
StartChar: hyphen
Encoding: 45 45 14
Width: 24
VWidth: 0
Flags: MW
LayerCount: 4
Back
Fore
SplineSet
0 16 m 25,0,-1
 20 16 l 25,1,-1
 20 12 l 25,2,-1
 0 12 l 25,3,-1
 0 16 l 25,0,-1
EndSplineSet
Layer: 2
SplineSet
0 16 m 25,0,-1
 20 16 l 25,1,-1
 20 12 l 25,2,-1
 0 12 l 25,3,-1
 0 16 l 25,0,-1
EndSplineSet
Layer: 3
SplineSet
0 16 m 25,0,-1
 20 16 l 25,1,-1
 20 12 l 25,2,-1
 0 12 l 25,3,-1
 0 16 l 25,0,-1
EndSplineSet
EndChar
StartChar: period
Encoding: 46 46 15
Width: 24
VWidth: 0
Flags: MW
LayerCount: 3
Back
Fore
SplineSet
8 8 m 29,0,-1
 12 8 l 25,1,-1
 12 0 l 25,2,-1
 8 0 l 25,3,-1
 8 8 l 29,0,-1
EndSplineSet
Layer: 2
SplineSet
8 8 m 29,0,-1
 12 8 l 25,1,-1
 12 0 l 25,2,-1
 8 0 l 25,3,-1
 8 8 l 29,0,-1
EndSplineSet
EndChar
StartChar: slash
Encoding: 47 47 16
Width: 24
VWidth: 0
Flags: MW
LayerCount: 4
Back
Fore
SplineSet
8 0 m 29,0,-1
 8 7 l 25,1,-1
 9 8 l 25,2,-1
 12 8 l 25,3,-1
 12 15 l 25,4,-1
 13 16 l 25,5,-1
 16 16 l 25,6,-1
 16 23 l 25,7,-1
 17 24 l 25,8,-1
 20 24 l 25,9,-1
 20 32 l 25,10,-1
 16 32 l 25,11,-1
 16 25 l 25,12,-1
 15 24 l 25,13,-1
 12 24 l 25,14,-1
 12 17 l 25,15,-1
 11 16 l 25,16,-1
 8 16 l 25,17,-1
 8 9 l 25,18,-1
 7 8 l 25,19,-1
 4 8 l 25,20,-1
 4 0 l 25,21,-1
 8 0 l 29,0,-1
EndSplineSet
Layer: 2
SplineSet
8 0 m 29,0,-1
 8 7 l 25,1,-1
 9 8 l 25,2,-1
 12 8 l 25,3,-1
 12 15 l 25,4,-1
 13 16 l 25,5,-1
 16 16 l 25,6,-1
 16 23 l 25,7,-1
 17 24 l 25,8,-1
 20 24 l 25,9,-1
 20 32 l 25,10,-1
 16 32 l 25,11,-1
 16 25 l 25,12,-1
 15 24 l 25,13,-1
 12 24 l 25,14,-1
 12 17 l 25,15,-1
 11 16 l 25,16,-1
 8 16 l 25,17,-1
 8 9 l 25,18,-1
 7 8 l 25,19,-1
 4 8 l 25,20,-1
 4 0 l 25,21,-1
 8 0 l 29,0,-1
EndSplineSet
Layer: 3
SplineSet
8 0 m 29,0,-1
 8 7 l 25,1,-1
 9 8 l 25,2,-1
 12 8 l 25,3,-1
 12 15 l 25,4,-1
 13 16 l 25,5,-1
 16 16 l 25,6,-1
 16 23 l 25,7,-1
 17 24 l 25,8,-1
 20 24 l 25,9,-1
 20 32 l 25,10,-1
 16 32 l 25,11,-1
 16 25 l 25,12,-1
 15 24 l 25,13,-1
 12 24 l 25,14,-1
 12 17 l 25,15,-1
 11 16 l 25,16,-1
 8 16 l 25,17,-1
 8 9 l 25,18,-1
 7 8 l 25,19,-1
 4 8 l 25,20,-1
 4 0 l 25,21,-1
 8 0 l 29,0,-1
EndSplineSet
EndChar
StartChar: zero
Encoding: 48 48 17
Width: 24
VWidth: 0
Flags: MW
LayerCount: 4
Back
Fore
SplineSet
16 20 m 25,0,-1
 4 8 l 25,1,-1
 4 6 l 25,2,-1
 6 4 l 25,3,-1
 14 4 l 25,4,-1
 16 6 l 25,5,-1
 16 20 l 25,0,-1
6 28 m 25,6,-1
 4 26 l 25,7,-1
 4 12 l 25,8,-1
 16 24 l 25,9,-1
 16 26 l 25,10,-1
 14 28 l 25,11,-1
 6 28 l 25,6,-1
5 32 m 25,12,-1
 15 32 l 25,13,-1
 20 27 l 25,14,-1
 20 5 l 25,15,-1
 15 0 l 25,16,-1
 5 0 l 25,17,-1
 0 5 l 25,18,-1
 0 27 l 29,19,-1
 5 32 l 25,12,-1
EndSplineSet
Layer: 2
SplineSet
16 20 m 25,0,-1
 13 20 l 25,1,-1
 12 19 l 25,2,-1
 12 16 l 25,3,-1
 9 16 l 25,4,-1
 8 15 l 25,5,-1
 8 12 l 25,6,-1
 4 12 l 25,7,-1
 4 5 l 25,8,-1
 5 4 l 25,9,-1
 15 4 l 25,10,-1
 16 5 l 25,11,-1
 16 20 l 25,0,-1
5 28 m 25,12,-1
 4 27 l 25,13,-1
 4 16 l 25,14,-1
 7 16 l 25,15,-1
 8 17 l 25,16,-1
 8 20 l 25,17,-1
 11 20 l 25,18,-1
 12 21 l 25,19,-1
 12 24 l 25,20,-1
 16 24 l 25,21,-1
 16 27 l 25,22,-1
 15 28 l 25,23,-1
 5 28 l 25,12,-1
4 32 m 25,24,-1
 16 32 l 25,25,-1
 16 29 l 25,26,-1
 17 28 l 25,27,-1
 20 28 l 25,28,-1
 20 4 l 25,29,-1
 17 4 l 25,30,-1
 16 3 l 25,31,-1
 16 0 l 25,32,-1
 4 0 l 25,33,-1
 4 3 l 25,34,-1
 3 4 l 25,35,-1
 0 4 l 25,36,-1
 0 28 l 25,37,-1
 3 28 l 25,38,-1
 4 29 l 25,39,-1
 4 32 l 25,24,-1
EndSplineSet
Layer: 3
SplineSet
16 20 m 25,0,-1
 4 8 l 25,1,-1
 4 6 l 25,2,-1
 6 4 l 25,3,-1
 14 4 l 25,4,-1
 16 6 l 25,5,-1
 16 20 l 25,0,-1
6 28 m 25,6,-1
 4 26 l 25,7,-1
 4 12 l 25,8,-1
 16 24 l 25,9,-1
 16 26 l 25,10,-1
 14 28 l 25,11,-1
 6 28 l 25,6,-1
5 32 m 25,12,-1
 15 32 l 25,13,-1
 20 27 l 25,14,-1
 20 5 l 25,15,-1
 15 0 l 25,16,-1
 5 0 l 25,17,-1
 0 5 l 25,18,-1
 0 27 l 29,19,-1
 5 32 l 25,12,-1
EndSplineSet
EndChar
StartChar: one
Encoding: 49 49 18
Width: 24
VWidth: 0
Flags: MW
LayerCount: 4
Back
Fore
SplineSet
12 32 m 25,0,-1
 12 4 l 25,1,-1
 16 4 l 25,2,-1
 16 0 l 25,3,-1
 4 0 l 25,4,-1
 4 4 l 25,5,-1
 8 4 l 25,6,-1
 8 24 l 25,7,-1
 4 24 l 25,8,-1
 4 28 l 25,9,-1
 6 28 l 29,10,-1
 10 32 l 25,11,-1
 12 32 l 25,0,-1
EndSplineSet
Layer: 2
SplineSet
12 32 m 29,0,-1
 12 4 l 25,1,-1
 16 4 l 25,2,-1
 16 0 l 25,3,-1
 4 0 l 25,4,-1
 4 4 l 25,5,-1
 8 4 l 25,6,-1
 8 24 l 25,7,-1
 4 24 l 25,8,-1
 4 28 l 25,9,-1
 8 28 l 25,10,-1
 8 32 l 25,11,-1
 12 32 l 29,0,-1
EndSplineSet
Layer: 3
SplineSet
12 32 m 25,0,-1
 12 4 l 25,1,-1
 16 4 l 25,2,-1
 16 0 l 25,3,-1
 4 0 l 25,4,-1
 4 4 l 25,5,-1
 8 4 l 25,6,-1
 8 24 l 25,7,-1
 4 24 l 25,8,-1
 4 28 l 25,9,-1
 6 28 l 29,10,-1
 10 32 l 25,11,-1
 12 32 l 25,0,-1
EndSplineSet
EndChar
StartChar: two
Encoding: 50 50 19
Width: 24
VWidth: 0
Flags: MW
LayerCount: 4
Back
Fore
SplineSet
5 32 m 25,0,-1
 15 32 l 25,1,-1
 20 27 l 25,2,-1
 20 17 l 25,3,-1
 7 4 l 25,4,-1
 20 4 l 25,5,-1
 20 0 l 25,6,-1
 0 0 l 25,7,-1
 0 3 l 29,8,-1
 16 18 l 25,9,-1
 16 26 l 25,10,-1
 14 28 l 25,11,-1
 6 28 l 25,12,-1
 4 26 l 25,13,-1
 4 20 l 25,14,-1
 0 20 l 25,15,-1
 0 27 l 25,16,-1
 5 32 l 25,0,-1
EndSplineSet
Layer: 2
SplineSet
4 32 m 29,0,-1
 16 32 l 25,1,-1
 16 29 l 25,2,-1
 17 28 l 25,3,-1
 20 28 l 25,4,-1
 20 16 l 25,5,-1
 17 16 l 25,6,-1
 16 15 l 25,7,-1
 16 12 l 25,8,-1
 13 12 l 25,9,-1
 12 11 l 25,10,-1
 12 8 l 25,11,-1
 9 8 l 25,12,-1
 8 7 l 25,13,-1
 8 4 l 25,14,-1
 20 4 l 25,15,-1
 20 0 l 25,16,-1
 0 0 l 25,17,-1
 0 4 l 25,18,-1
 4 4 l 25,19,-1
 4 8 l 25,20,-1
 7 8 l 25,21,-1
 8 9 l 25,22,-1
 8 12 l 25,23,-1
 11 12 l 25,24,-1
 12 13 l 25,25,-1
 12 16 l 25,26,-1
 15 16 l 25,27,-1
 16 17 l 25,28,-1
 16 27 l 25,29,-1
 15 28 l 25,30,-1
 5 28 l 25,31,-1
 4 27 l 25,32,-1
 4 20 l 25,33,-1
 0 20 l 25,34,-1
 0 28 l 25,35,-1
 3 28 l 25,36,-1
 4 29 l 25,37,-1
 4 32 l 29,0,-1
EndSplineSet
Layer: 3
SplineSet
5 32 m 25,0,-1
 15 32 l 25,1,-1
 20 27 l 25,2,-1
 20 17 l 25,3,-1
 7 4 l 25,4,-1
 20 4 l 25,5,-1
 20 0 l 25,6,-1
 0 0 l 25,7,-1
 0 3 l 29,8,-1
 16 18 l 25,9,-1
 16 26 l 25,10,-1
 14 28 l 25,11,-1
 6 28 l 25,12,-1
 4 26 l 25,13,-1
 4 20 l 25,14,-1
 0 20 l 25,15,-1
 0 27 l 25,16,-1
 5 32 l 25,0,-1
EndSplineSet
EndChar
StartChar: three
Encoding: 51 51 20
Width: 24
VWidth: 0
Flags: MW
LayerCount: 3
Back
Fore
SplineSet
0 27 m 25,0,-1
 5 32 l 25,1,-1
 15 32 l 25,2,-1
 20 27 l 25,3,-1
 20 19 l 29,4,-1
 17 16 l 29,5,-1
 20 13 l 29,6,-1
 20 5 l 25,7,-1
 15 0 l 25,8,-1
 5 0 l 25,9,-1
 0 5 l 25,10,-1
 0 8 l 25,11,-1
 4 8 l 25,12,-1
 4 6 l 25,13,-1
 6 4 l 25,14,-1
 14 4 l 25,15,-1
 16 6 l 25,16,-1
 16 12 l 29,17,-1
 14 14 l 29,18,-1
 8 14 l 29,19,-1
 8 18 l 29,20,-1
 14 18 l 29,21,-1
 16 20 l 29,22,-1
 16 26 l 25,23,-1
 14 28 l 25,24,-1
 6 28 l 25,25,-1
 4 26 l 25,26,-1
 4 24 l 25,27,-1
 0 24 l 25,28,-1
 0 27 l 25,0,-1
EndSplineSet
Layer: 2
SplineSet
0 28 m 29,0,-1
 3 28 l 25,1,-1
 4 29 l 25,2,-1
 4 32 l 25,3,-1
 16 32 l 25,4,-1
 16 29 l 25,5,-1
 17 28 l 25,6,-1
 20 28 l 25,7,-1
 20 20 l 25,8,-1
 17 20 l 25,9,-1
 16 19 l 25,10,-1
 16 17 l 25,11,-1
 17 16 l 25,12,-1
 20 16 l 25,13,-1
 20 4 l 25,14,-1
 17 4 l 25,15,-1
 16 3 l 25,16,-1
 16 0 l 25,17,-1
 4 0 l 25,18,-1
 4 3 l 25,19,-1
 3 4 l 25,20,-1
 0 4 l 25,21,-1
 0 8 l 25,22,-1
 4 8 l 25,23,-1
 4 5 l 25,24,-1
 5 4 l 25,25,-1
 15 4 l 25,26,-1
 16 5 l 25,27,-1
 16 15 l 25,28,-1
 15 16 l 25,29,-1
 8 16 l 25,30,-1
 8 20 l 25,31,-1
 15 20 l 25,32,-1
 16 21 l 25,33,-1
 16 27 l 25,34,-1
 15 28 l 25,35,-1
 5 28 l 25,36,-1
 4 27 l 25,37,-1
 4 24 l 25,38,-1
 0 24 l 25,39,-1
 0 28 l 29,0,-1
EndSplineSet
EndChar
StartChar: four
Encoding: 52 52 21
Width: 24
VWidth: 0
Flags: MW
LayerCount: 3
Back
Fore
SplineSet
16 26 m 29,0,-1
 4 14 l 25,1,-1
 4 12 l 25,2,-1
 16 12 l 25,3,-1
 16 26 l 29,0,-1
17 32 m 25,4,-1
 20 32 l 25,5,-1
 20 0 l 25,6,-1
 16 0 l 25,7,-1
 16 8 l 25,8,-1
 0 8 l 25,9,-1
 0 15 l 25,10,-1
 17 32 l 25,4,-1
EndSplineSet
Layer: 2
SplineSet
16 24 m 25,0,-1
 13 24 l 25,1,-1
 12 23 l 25,2,-1
 12 20 l 25,3,-1
 9 20 l 25,4,-1
 8 19 l 25,5,-1
 8 16 l 25,6,-1
 5 16 l 25,7,-1
 4 15 l 25,8,-1
 4 12 l 25,9,-1
 16 12 l 25,10,-1
 16 24 l 25,0,-1
16 32 m 25,11,-1
 20 32 l 25,12,-1
 20 0 l 25,13,-1
 16 0 l 25,14,-1
 16 8 l 25,15,-1
 0 8 l 25,16,-1
 0 16 l 25,17,-1
 3 16 l 25,18,-1
 4 17 l 25,19,-1
 4 20 l 25,20,-1
 7 20 l 25,21,-1
 8 21 l 25,22,-1
 8 24 l 25,23,-1
 11 24 l 25,24,-1
 12 25 l 25,25,-1
 12 28 l 25,26,-1
 15 28 l 25,27,-1
 16 29 l 25,28,-1
 16 32 l 25,11,-1
EndSplineSet
EndChar
StartChar: five
Encoding: 53 53 22
Width: 24
VWidth: 0
Flags: MW
LayerCount: 3
Back
Fore
SplineSet
0 32 m 25,0,-1
 20 32 l 25,1,-1
 20 28 l 25,2,-1
 4 28 l 25,3,-1
 4 20 l 25,4,-1
 15 20 l 25,5,-1
 20 15 l 25,6,-1
 20 5 l 25,7,-1
 15 0 l 25,8,-1
 5 0 l 25,9,-1
 0 5 l 25,10,-1
 0 8 l 25,11,-1
 4 8 l 25,12,-1
 4 6 l 25,13,-1
 6 4 l 25,14,-1
 14 4 l 25,15,-1
 16 6 l 25,16,-1
 16 14 l 25,17,-1
 14 16 l 29,18,-1
 0 16 l 25,19,-1
 0 32 l 25,0,-1
EndSplineSet
Layer: 2
SplineSet
0 32 m 29,0,-1
 20 32 l 25,1,-1
 20 28 l 25,2,-1
 4 28 l 25,3,-1
 4 20 l 25,4,-1
 16 20 l 25,5,-1
 16 17 l 25,6,-1
 17 16 l 25,7,-1
 20 16 l 25,8,-1
 20 4 l 25,9,-1
 17 4 l 25,10,-1
 16 3 l 25,11,-1
 16 0 l 25,12,-1
 4 0 l 25,13,-1
 4 3 l 25,14,-1
 3 4 l 25,15,-1
 0 4 l 25,16,-1
 0 8 l 25,17,-1
 4 8 l 25,18,-1
 4 5 l 25,19,-1
 5 4 l 25,20,-1
 15 4 l 25,21,-1
 16 5 l 25,22,-1
 16 15 l 25,23,-1
 15 16 l 25,24,-1
 0 16 l 25,25,-1
 0 32 l 29,0,-1
EndSplineSet
EndChar
StartChar: six
Encoding: 54 54 23
Width: 24
VWidth: 0
Flags: MW
LayerCount: 4
Back
Fore
SplineSet
4 16 m 25,0,-1
 4 6 l 25,1,-1
 6 4 l 25,2,-1
 14 4 l 25,3,-1
 16 6 l 25,4,-1
 16 14 l 25,5,-1
 14 16 l 29,6,-1
 4 16 l 25,0,-1
16 32 m 25,7,-1
 16 28 l 25,8,-1
 6 28 l 25,9,-1
 4 26 l 25,10,-1
 4 20 l 25,11,-1
 15 20 l 25,12,-1
 20 15 l 25,13,-1
 20 5 l 25,14,-1
 15 0 l 25,15,-1
 5 0 l 25,16,-1
 0 5 l 25,17,-1
 0 27 l 25,18,-1
 5 32 l 25,19,-1
 16 32 l 25,7,-1
EndSplineSet
Layer: 2
SplineSet
4 16 m 25,0,-1
 4 5 l 25,1,-1
 5 4 l 25,2,-1
 15 4 l 25,3,-1
 16 5 l 25,4,-1
 16 15 l 25,5,-1
 15 16 l 25,6,-1
 4 16 l 25,0,-1
16 32 m 25,7,-1
 16 28 l 25,8,-1
 5 28 l 25,9,-1
 4 27 l 25,10,-1
 4 20 l 25,11,-1
 16 20 l 25,12,-1
 16 17 l 25,13,-1
 17 16 l 25,14,-1
 20 16 l 25,15,-1
 20 4 l 25,16,-1
 17 4 l 25,17,-1
 16 3 l 25,18,-1
 16 0 l 25,19,-1
 4 0 l 25,20,-1
 4 3 l 25,21,-1
 3 4 l 25,22,-1
 0 4 l 25,23,-1
 0 28 l 25,24,-1
 3 28 l 25,25,-1
 4 29 l 25,26,-1
 4 32 l 25,27,-1
 16 32 l 25,7,-1
EndSplineSet
Layer: 3
SplineSet
4 16 m 25,0,-1
 4 6 l 25,1,-1
 6 4 l 25,2,-1
 14 4 l 25,3,-1
 16 6 l 25,4,-1
 16 14 l 25,5,-1
 14 16 l 29,6,-1
 4 16 l 25,0,-1
16 32 m 25,7,-1
 16 28 l 25,8,-1
 6 28 l 25,9,-1
 4 26 l 25,10,-1
 4 20 l 25,11,-1
 15 20 l 25,12,-1
 20 15 l 25,13,-1
 20 5 l 25,14,-1
 15 0 l 25,15,-1
 5 0 l 25,16,-1
 0 5 l 25,17,-1
 0 27 l 25,18,-1
 5 32 l 25,19,-1
 16 32 l 25,7,-1
EndSplineSet
EndChar
StartChar: seven
Encoding: 55 55 24
Width: 24
VWidth: 0
Flags: MW
LayerCount: 3
Back
Fore
SplineSet
0 32 m 25,0,-1
 20 32 l 25,1,-1
 20 20 l 25,2,-1
 12 12 l 25,3,-1
 12 0 l 25,4,-1
 8 0 l 25,5,-1
 8 13 l 25,6,-1
 16 21 l 29,7,-1
 16 28 l 25,8,-1
 0 28 l 25,9,-1
 0 32 l 25,0,-1
EndSplineSet
Layer: 2
SplineSet
0 32 m 29,0,-1
 20 32 l 25,1,-1
 20 20 l 25,2,-1
 17 20 l 25,3,-1
 16 19 l 25,4,-1
 16 12 l 25,5,-1
 13 12 l 25,6,-1
 12 11 l 25,7,-1
 12 0 l 25,8,-1
 8 0 l 25,9,-1
 8 12 l 25,10,-1
 11 12 l 25,11,-1
 12 13 l 25,12,-1
 12 20 l 25,13,-1
 15 20 l 25,14,-1
 16 21 l 25,15,-1
 16 28 l 25,16,-1
 0 28 l 25,17,-1
 0 32 l 29,0,-1
EndSplineSet
EndChar
StartChar: eight
Encoding: 56 56 25
Width: 24
VWidth: 0
Flags: MW
LayerCount: 4
Back
Fore
SplineSet
6 14 m 29,0,-1
 4 12 l 29,1,-1
 4 6 l 25,2,-1
 6 4 l 25,3,-1
 14 4 l 25,4,-1
 16 6 l 25,5,-1
 16 12 l 29,6,-1
 14 14 l 29,7,-1
 6 14 l 29,0,-1
6 28 m 25,8,-1
 4 26 l 25,9,-1
 4 20 l 29,10,-1
 6 18 l 29,11,-1
 14 18 l 29,12,-1
 16 20 l 29,13,-1
 16 26 l 25,14,-1
 14 28 l 25,15,-1
 6 28 l 25,8,-1
5 32 m 25,16,-1
 15 32 l 25,17,-1
 20 27 l 25,18,-1
 20 19 l 29,19,-1
 17 16 l 29,20,-1
 20 13 l 29,21,-1
 20 5 l 25,22,-1
 15 0 l 25,23,-1
 5 0 l 25,24,-1
 0 5 l 25,25,-1
 0 13 l 29,26,-1
 3 16 l 29,27,-1
 0 19 l 29,28,-1
 0 27 l 25,29,-1
 5 32 l 25,16,-1
EndSplineSet
Layer: 2
SplineSet
5 16 m 25,0,-1
 4 15 l 25,1,-1
 4 5 l 25,2,-1
 5 4 l 25,3,-1
 15 4 l 25,4,-1
 16 5 l 25,5,-1
 16 15 l 25,6,-1
 15 16 l 25,7,-1
 5 16 l 25,0,-1
5 28 m 25,8,-1
 4 27 l 25,9,-1
 4 21 l 25,10,-1
 5 20 l 25,11,-1
 15 20 l 25,12,-1
 16 21 l 25,13,-1
 16 27 l 25,14,-1
 15 28 l 25,15,-1
 5 28 l 25,8,-1
4 32 m 25,16,-1
 16 32 l 25,17,-1
 16 29 l 25,18,-1
 17 28 l 25,19,-1
 20 28 l 25,20,-1
 20 20 l 25,21,-1
 17 20 l 25,22,-1
 16 19 l 25,23,-1
 16 17 l 25,24,-1
 17 16 l 25,25,-1
 20 16 l 25,26,-1
 20 4 l 25,27,-1
 17 4 l 25,28,-1
 16 3 l 25,29,-1
 16 0 l 25,30,-1
 4 0 l 25,31,-1
 4 3 l 25,32,-1
 3 4 l 25,33,-1
 0 4 l 25,34,-1
 0 16 l 25,35,-1
 3 16 l 25,36,-1
 4 17 l 25,37,-1
 4 19 l 25,38,-1
 3 20 l 25,39,-1
 0 20 l 25,40,-1
 0 28 l 25,41,-1
 3 28 l 25,42,-1
 4 29 l 25,43,-1
 4 32 l 25,16,-1
EndSplineSet
Layer: 3
SplineSet
6 14 m 29,0,-1
 4 12 l 29,1,-1
 4 6 l 25,2,-1
 6 4 l 25,3,-1
 14 4 l 25,4,-1
 16 6 l 25,5,-1
 16 12 l 29,6,-1
 14 14 l 29,7,-1
 6 14 l 29,0,-1
6 28 m 25,8,-1
 4 26 l 25,9,-1
 4 20 l 29,10,-1
 6 18 l 29,11,-1
 14 18 l 29,12,-1
 16 20 l 29,13,-1
 16 26 l 25,14,-1
 14 28 l 25,15,-1
 6 28 l 25,8,-1
5 32 m 25,16,-1
 15 32 l 25,17,-1
 20 27 l 25,18,-1
 20 19 l 29,19,-1
 17 16 l 29,20,-1
 20 13 l 29,21,-1
 20 5 l 25,22,-1
 15 0 l 25,23,-1
 5 0 l 25,24,-1
 0 5 l 25,25,-1
 0 13 l 29,26,-1
 3 16 l 29,27,-1
 0 19 l 29,28,-1
 0 27 l 25,29,-1
 5 32 l 25,16,-1
EndSplineSet
EndChar
StartChar: nine
Encoding: 57 57 26
Width: 24
VWidth: 0
Flags: MW
LayerCount: 4
Back
Fore
SplineSet
14 28 m 29,0,-1
 6 28 l 25,1,-1
 4 26 l 25,2,-1
 4 18 l 25,3,-1
 6 16 l 25,4,-1
 16 16 l 25,5,-1
 16 26 l 25,6,-1
 14 28 l 29,0,-1
15 32 m 25,7,-1
 20 27 l 25,8,-1
 20 5 l 25,9,-1
 15 0 l 25,10,-1
 4 0 l 25,11,-1
 4 4 l 25,12,-1
 14 4 l 25,13,-1
 16 6 l 25,14,-1
 16 12 l 25,15,-1
 5 12 l 25,16,-1
 0 17 l 25,17,-1
 0 27 l 25,18,-1
 5 32 l 25,19,-1
 15 32 l 25,7,-1
EndSplineSet
Layer: 2
SplineSet
15 28 m 25,0,-1
 5 28 l 25,1,-1
 4 27 l 25,2,-1
 4 17 l 25,3,-1
 5 16 l 25,4,-1
 16 16 l 25,5,-1
 16 27 l 25,6,-1
 15 28 l 25,0,-1
16 32 m 25,7,-1
 16 29 l 25,8,-1
 17 28 l 25,9,-1
 20 28 l 25,10,-1
 20 4 l 25,11,-1
 17 4 l 25,12,-1
 16 3 l 25,13,-1
 16 0 l 25,14,-1
 4 0 l 25,15,-1
 4 4 l 25,16,-1
 15 4 l 25,17,-1
 16 5 l 25,18,-1
 16 12 l 25,19,-1
 4 12 l 25,20,-1
 4 15 l 25,21,-1
 3 16 l 25,22,-1
 0 16 l 25,23,-1
 0 28 l 25,24,-1
 3 28 l 25,25,-1
 4 29 l 25,26,-1
 4 32 l 25,27,-1
 16 32 l 25,7,-1
EndSplineSet
Layer: 3
SplineSet
14 28 m 29,0,-1
 6 28 l 25,1,-1
 4 26 l 25,2,-1
 4 18 l 25,3,-1
 6 16 l 25,4,-1
 16 16 l 25,5,-1
 16 26 l 25,6,-1
 14 28 l 29,0,-1
15 32 m 25,7,-1
 20 27 l 25,8,-1
 20 5 l 25,9,-1
 15 0 l 25,10,-1
 4 0 l 25,11,-1
 4 4 l 25,12,-1
 14 4 l 25,13,-1
 16 6 l 25,14,-1
 16 12 l 25,15,-1
 5 12 l 25,16,-1
 0 17 l 25,17,-1
 0 27 l 25,18,-1
 5 32 l 25,19,-1
 15 32 l 25,7,-1
EndSplineSet
EndChar
StartChar: less
Encoding: 60 60 29
Width: 24
VWidth: 0
Flags: MW
LayerCount: 3
Back
Fore
SplineSet
20 25 m 29,0,-1
 8 14 l 29,1,-1
 20 3 l 29,2,-1
 17 0 l 29,3,-1
 4 13 l 29,4,-1
 4 15 l 29,5,-1
 17 28 l 29,6,-1
 20 25 l 29,0,-1
EndSplineSet
Layer: 2
SplineSet
20 28 m 29,0,-1
 20 24 l 25,1,-1
 17 24 l 25,2,-1
 16 23 l 25,3,-1
 16 20 l 25,4,-1
 13 20 l 25,5,-1
 12 19 l 25,6,-1
 12 16 l 25,7,-1
 9 16 l 25,8,-1
 8 15 l 25,9,-1
 8 13 l 25,10,-1
 9 12 l 25,11,-1
 12 12 l 25,12,-1
 12 9 l 25,13,-1
 13 8 l 25,14,-1
 16 8 l 25,15,-1
 16 5 l 25,16,-1
 17 4 l 25,17,-1
 20 4 l 25,18,-1
 20 0 l 25,19,-1
 16 0 l 25,20,-1
 16 3 l 25,21,-1
 15 4 l 25,22,-1
 12 4 l 25,23,-1
 12 7 l 25,24,-1
 11 8 l 25,25,-1
 8 8 l 25,26,-1
 8 11 l 25,27,-1
 7 12 l 25,28,-1
 4 12 l 25,29,-1
 4 16 l 25,30,-1
 7 16 l 25,31,-1
 8 17 l 25,32,-1
 8 20 l 25,33,-1
 11 20 l 25,34,-1
 12 21 l 25,35,-1
 12 24 l 25,36,-1
 15 24 l 25,37,-1
 16 25 l 25,38,-1
 16 28 l 25,39,-1
 20 28 l 29,0,-1
EndSplineSet
EndChar
StartChar: greater
Encoding: 62 62 31
Width: 24
VWidth: 0
Flags: MW
LayerCount: 4
Back
Fore
SplineSet
4 3 m 29,0,-1
 16 14 l 29,1,-1
 4 25 l 29,2,-1
 7 28 l 29,3,-1
 20 15 l 29,4,-1
 20 13 l 29,5,-1
 7 0 l 29,6,-1
 4 3 l 29,0,-1
EndSplineSet
Layer: 2
SplineSet
8 28 m 29,0,-1
 8 25 l 25,1,-1
 9 24 l 25,2,-1
 12 24 l 25,3,-1
 12 21 l 25,4,-1
 13 20 l 25,5,-1
 16 20 l 25,6,-1
 16 17 l 25,7,-1
 17 16 l 25,8,-1
 20 16 l 25,9,-1
 20 12 l 25,10,-1
 17 12 l 25,11,-1
 16 11 l 25,12,-1
 16 8 l 25,13,-1
 13 8 l 25,14,-1
 12 7 l 25,15,-1
 12 4 l 25,16,-1
 9 4 l 25,17,-1
 8 3 l 25,18,-1
 8 0 l 25,19,-1
 4 0 l 25,20,-1
 4 4 l 25,21,-1
 7 4 l 25,22,-1
 8 5 l 25,23,-1
 8 8 l 25,24,-1
 11 8 l 25,25,-1
 12 9 l 25,26,-1
 12 12 l 25,27,-1
 15 12 l 25,28,-1
 16 13 l 25,29,-1
 16 15 l 25,30,-1
 15 16 l 25,31,-1
 12 16 l 25,32,-1
 12 19 l 25,33,-1
 11 20 l 25,34,-1
 8 20 l 25,35,-1
 8 23 l 25,36,-1
 7 24 l 25,37,-1
 4 24 l 25,38,-1
 4 28 l 25,39,-1
 8 28 l 29,0,-1
EndSplineSet
Layer: 3
SplineSet
4 3 m 29,0,-1
 16 14 l 29,1,-1
 4 25 l 29,2,-1
 7 28 l 29,3,-1
 20 15 l 29,4,-1
 20 13 l 29,5,-1
 7 0 l 29,6,-1
 4 3 l 29,0,-1
EndSplineSet
EndChar
StartChar: question
Encoding: 63 63 32
Width: 24
VWidth: 0
Flags: MW
LayerCount: 4
Back
Fore
SplineSet
12 12 m 25,0,-1
 8 12 l 25,1,-1
 8 14 l 25,2,-1
 16 22 l 25,3,-1
 16 26 l 25,4,-1
 14 28 l 25,5,-1
 6 28 l 25,6,-1
 4 26 l 25,7,-1
 4 20 l 25,8,-1
 0 20 l 25,9,-1
 0 27 l 25,10,-1
 5 32 l 25,11,-1
 15 32 l 25,12,-1
 20 27 l 25,13,-1
 20 21 l 25,14,-1
 12 13 l 29,15,-1
 12 12 l 25,0,-1
8 8 m 25,16,-1
 12 8 l 25,17,-1
 12 0 l 25,18,-1
 8 0 l 25,19,-1
 8 8 l 25,16,-1
EndSplineSet
Layer: 2
SplineSet
12 12 m 29,0,-1
 12 15 l 25,1,-1
 13 16 l 25,2,-1
 16 16 l 25,3,-1
 16 19 l 25,4,-1
 17 20 l 25,5,-1
 20 20 l 25,6,-1
 20 28 l 25,7,-1
 17 28 l 25,8,-1
 16 29 l 25,9,-1
 16 32 l 25,10,-1
 4 32 l 25,11,-1
 4 29 l 25,12,-1
 3 28 l 25,13,-1
 0 28 l 25,14,-1
 0 20 l 25,15,-1
 4 20 l 25,16,-1
 4 27 l 25,17,-1
 5 28 l 25,18,-1
 15 28 l 25,19,-1
 16 27 l 25,20,-1
 16 21 l 25,21,-1
 15 20 l 25,22,-1
 12 20 l 25,23,-1
 12 17 l 25,24,-1
 11 16 l 25,25,-1
 8 16 l 25,26,-1
 8 12 l 25,27,-1
 12 12 l 29,0,-1
8 8 m 25,28,-1
 12 8 l 25,29,-1
 12 0 l 25,30,-1
 8 0 l 25,31,-1
 8 8 l 25,28,-1
EndSplineSet
Layer: 3
SplineSet
12 12 m 25,0,-1
 8 12 l 25,1,-1
 8 14 l 25,2,-1
 16 22 l 25,3,-1
 16 26 l 25,4,-1
 14 28 l 25,5,-1
 6 28 l 25,6,-1
 4 26 l 25,7,-1
 4 20 l 25,8,-1
 0 20 l 25,9,-1
 0 27 l 25,10,-1
 5 32 l 25,11,-1
 15 32 l 25,12,-1
 20 27 l 25,13,-1
 20 21 l 25,14,-1
 12 13 l 29,15,-1
 12 12 l 25,0,-1
8 8 m 25,16,-1
 12 8 l 25,17,-1
 12 0 l 25,18,-1
 8 0 l 25,19,-1
 8 8 l 25,16,-1
EndSplineSet
EndChar
StartChar: at
Encoding: 64 64 33
Width: 24
VWidth: 0
Flags: MW
LayerCount: 4
Back
Fore
SplineSet
16 20 m 25,0,-1
 14 20 l 25,1,-1
 12 18 l 25,2,-1
 12 14 l 25,3,-1
 14 12 l 25,4,-1
 16 12 l 29,5,-1
 16 20 l 25,0,-1
15 32 m 25,6,-1
 20 27 l 25,7,-1
 20 8 l 25,8,-1
 13 8 l 25,9,-1
 8 13 l 25,10,-1
 8 19 l 25,11,-1
 13 24 l 25,12,-1
 16 24 l 25,13,-1
 16 26 l 25,14,-1
 14 28 l 25,15,-1
 6 28 l 25,16,-1
 4 26 l 25,17,-1
 4 6 l 25,18,-1
 6 4 l 25,19,-1
 20 4 l 25,20,-1
 20 0 l 25,21,-1
 5 0 l 25,22,-1
 0 5 l 25,23,-1
 0 27 l 25,24,-1
 5 32 l 25,25,-1
 15 32 l 25,6,-1
EndSplineSet
Layer: 2
SplineSet
16 20 m 25,0,-1
 13 20 l 25,1,-1
 12 19 l 25,2,-1
 12 13 l 25,3,-1
 13 12 l 25,4,-1
 16 12 l 25,5,-1
 16 20 l 25,0,-1
16 32 m 25,6,-1
 16 29 l 25,7,-1
 17 28 l 25,8,-1
 20 28 l 25,9,-1
 20 8 l 25,10,-1
 12 8 l 25,11,-1
 12 11 l 25,12,-1
 11 12 l 25,13,-1
 8 12 l 25,14,-1
 8 20 l 25,15,-1
 11 20 l 25,16,-1
 12 21 l 25,17,-1
 12 24 l 25,18,-1
 16 24 l 25,19,-1
 16 27 l 25,20,-1
 15 28 l 25,21,-1
 5 28 l 25,22,-1
 4 27 l 25,23,-1
 4 5 l 25,24,-1
 5 4 l 25,25,-1
 20 4 l 25,26,-1
 20 0 l 25,27,-1
 4 0 l 25,28,-1
 4 3 l 25,29,-1
 3 4 l 25,30,-1
 0 4 l 25,31,-1
 0 28 l 25,32,-1
 3 28 l 25,33,-1
 4 29 l 25,34,-1
 4 32 l 25,35,-1
 16 32 l 25,6,-1
EndSplineSet
Layer: 3
SplineSet
16 20 m 25,0,-1
 14 20 l 25,1,-1
 12 18 l 25,2,-1
 12 14 l 25,3,-1
 14 12 l 25,4,-1
 16 12 l 29,5,-1
 16 20 l 25,0,-1
15 32 m 25,6,-1
 20 27 l 25,7,-1
 20 8 l 25,8,-1
 13 8 l 25,9,-1
 8 13 l 25,10,-1
 8 19 l 25,11,-1
 13 24 l 25,12,-1
 16 24 l 25,13,-1
 16 26 l 25,14,-1
 14 28 l 25,15,-1
 6 28 l 25,16,-1
 4 26 l 25,17,-1
 4 6 l 25,18,-1
 6 4 l 25,19,-1
 20 4 l 25,20,-1
 20 0 l 25,21,-1
 5 0 l 25,22,-1
 0 5 l 25,23,-1
 0 27 l 25,24,-1
 5 32 l 25,25,-1
 15 32 l 25,6,-1
EndSplineSet
EndChar
StartChar: A
Encoding: 65 65 34
Width: 24
VWidth: 0
Flags: MW
LayerCount: 3
Back
Fore
SplineSet
6 28 m 25,0,-1
 4 26 l 25,1,-1
 4 16 l 25,2,-1
 16 16 l 25,3,-1
 16 26 l 25,4,-1
 14 28 l 25,5,-1
 6 28 l 25,0,-1
5 32 m 29,6,-1
 15 32 l 25,7,-1
 20 27 l 25,8,-1
 20 0 l 25,9,-1
 16 0 l 25,10,-1
 16 12 l 25,11,-1
 4 12 l 25,12,-1
 4 0 l 25,13,-1
 0 0 l 25,14,-1
 0 27 l 25,15,-1
 5 32 l 29,6,-1
EndSplineSet
Layer: 2
SplineSet
5 28 m 25,0,-1
 4 27 l 25,1,-1
 4 16 l 25,2,-1
 16 16 l 25,3,-1
 16 27 l 25,4,-1
 15 28 l 25,5,-1
 5 28 l 25,0,-1
4 32 m 25,6,-1
 16 32 l 25,7,-1
 16 29 l 25,8,-1
 17 28 l 25,9,-1
 20 28 l 25,10,-1
 20 0 l 25,11,-1
 16 0 l 25,12,-1
 16 12 l 25,13,-1
 4 12 l 25,14,-1
 4 0 l 25,15,-1
 0 0 l 25,16,-1
 0 28 l 25,17,-1
 3 28 l 25,18,-1
 4 29 l 25,19,-1
 4 32 l 25,6,-1
EndSplineSet
EndChar
StartChar: B
Encoding: 66 66 35
Width: 24
VWidth: 0
Flags: MW
LayerCount: 3
Back
Fore
SplineSet
4 16 m 25,0,-1
 4 4 l 25,1,-1
 14 4 l 25,2,-1
 16 6 l 25,3,-1
 16 14 l 25,4,-1
 14 16 l 25,5,-1
 4 16 l 25,0,-1
4 28 m 25,6,-1
 4 20 l 25,7,-1
 14 20 l 25,8,-1
 16 22 l 25,9,-1
 16 26 l 25,10,-1
 14 28 l 29,11,-1
 4 28 l 25,6,-1
0 32 m 25,12,-1
 15 32 l 25,13,-1
 20 27 l 25,14,-1
 20 21 l 25,15,-1
 17 18 l 25,16,-1
 20 15 l 25,17,-1
 20 5 l 25,18,-1
 15 0 l 25,19,-1
 0 0 l 25,20,-1
 0 32 l 25,12,-1
EndSplineSet
Layer: 2
SplineSet
4 16 m 25,0,-1
 4 4 l 25,1,-1
 15 4 l 25,2,-1
 16 5 l 25,3,-1
 16 15 l 25,4,-1
 15 16 l 25,5,-1
 4 16 l 25,0,-1
4 28 m 25,6,-1
 4 20 l 25,7,-1
 15 20 l 25,8,-1
 16 21 l 25,9,-1
 16 27 l 25,10,-1
 15 28 l 25,11,-1
 4 28 l 25,6,-1
0 32 m 25,12,-1
 16 32 l 25,13,-1
 16 29 l 25,14,-1
 17 28 l 25,15,-1
 20 28 l 25,16,-1
 20 20 l 25,17,-1
 17 20 l 25,18,-1
 16 19 l 25,19,-1
 16 17 l 25,20,-1
 17 16 l 25,21,-1
 20 16 l 25,22,-1
 20 4 l 25,23,-1
 17 4 l 25,24,-1
 16 3 l 25,25,-1
 16 0 l 25,26,-1
 0 0 l 25,27,-1
 0 32 l 25,12,-1
EndSplineSet
EndChar
StartChar: D
Encoding: 68 68 37
Width: 24
VWidth: 0
Flags: MW
LayerCount: 3
Back
Fore
SplineSet
4 28 m 25,0,-1
 4 4 l 25,1,-1
 10 4 l 25,2,-1
 16 10 l 25,3,-1
 16 22 l 25,4,-1
 10 28 l 29,5,-1
 4 28 l 25,0,-1
0 32 m 25,6,-1
 11 32 l 25,7,-1
 20 23 l 25,8,-1
 20 9 l 25,9,-1
 11 0 l 25,10,-1
 0 0 l 25,11,-1
 0 32 l 25,6,-1
EndSplineSet
Layer: 2
SplineSet
4 28 m 25,0,-1
 4 4 l 25,1,-1
 11 4 l 25,2,-1
 12 5 l 25,3,-1
 12 8 l 25,4,-1
 15 8 l 25,5,-1
 16 9 l 25,6,-1
 16 23 l 25,7,-1
 15 24 l 25,8,-1
 12 24 l 25,9,-1
 12 27 l 25,10,-1
 11 28 l 25,11,-1
 4 28 l 25,0,-1
0 32 m 25,12,-1
 12 32 l 25,13,-1
 12 29 l 25,14,-1
 13 28 l 25,15,-1
 16 28 l 25,16,-1
 16 25 l 25,17,-1
 17 24 l 25,18,-1
 20 24 l 25,19,-1
 20 8 l 25,20,-1
 17 8 l 25,21,-1
 16 7 l 25,22,-1
 16 4 l 25,23,-1
 13 4 l 25,24,-1
 12 3 l 25,25,-1
 12 0 l 25,26,-1
 0 0 l 25,27,-1
 0 32 l 25,12,-1
EndSplineSet
EndChar
StartChar: H
Encoding: 72 72 41
Width: 24
VWidth: 0
Flags: MW
LayerCount: 4
Back
Fore
SplineSet
4 32 m 25,0,-1
 4 20 l 25,1,-1
 16 20 l 25,2,-1
 16 32 l 25,3,-1
 20 32 l 25,4,-1
 20 0 l 25,5,-1
 16 0 l 25,6,-1
 16 16 l 29,7,-1
 4 16 l 29,8,-1
 4 0 l 25,9,-1
 0 0 l 25,10,-1
 0 32 l 25,11,-1
 4 32 l 25,0,-1
EndSplineSet
Layer: 2
SplineSet
4 32 m 25,0,-1
 4 20 l 25,1,-1
 16 20 l 25,2,-1
 16 32 l 25,3,-1
 20 32 l 25,4,-1
 20 0 l 25,5,-1
 16 0 l 25,6,-1
 16 16 l 25,7,-1
 4 16 l 25,8,-1
 4 0 l 25,9,-1
 0 0 l 25,10,-1
 0 32 l 25,11,-1
 4 32 l 25,0,-1
EndSplineSet
Layer: 3
SplineSet
4 32 m 25,0,-1
 4 20 l 25,1,-1
 16 20 l 25,2,-1
 16 32 l 25,3,-1
 20 32 l 25,4,-1
 20 0 l 25,5,-1
 16 0 l 25,6,-1
 16 16 l 29,7,-1
 4 16 l 29,8,-1
 4 0 l 25,9,-1
 0 0 l 25,10,-1
 0 32 l 25,11,-1
 4 32 l 25,0,-1
EndSplineSet
EndChar
StartChar: I
Encoding: 73 73 42
Width: 24
VWidth: 0
Flags: MW
LayerCount: 4
Back
Fore
SplineSet
4 32 m 29,0,-1
 16 32 l 25,1,-1
 16 28 l 25,2,-1
 12 28 l 25,3,-1
 12 4 l 25,4,-1
 16 4 l 25,5,-1
 16 0 l 25,6,-1
 4 0 l 25,7,-1
 4 4 l 25,8,-1
 8 4 l 25,9,-1
 8 28 l 25,10,-1
 4 28 l 25,11,-1
 4 32 l 29,0,-1
EndSplineSet
Layer: 2
SplineSet
4 32 m 29,0,-1
 16 32 l 25,1,-1
 16 28 l 25,2,-1
 12 28 l 25,3,-1
 12 4 l 25,4,-1
 16 4 l 25,5,-1
 16 0 l 25,6,-1
 4 0 l 25,7,-1
 4 4 l 25,8,-1
 8 4 l 25,9,-1
 8 28 l 25,10,-1
 4 28 l 25,11,-1
 4 32 l 29,0,-1
EndSplineSet
Layer: 3
SplineSet
4 32 m 29,0,-1
 16 32 l 25,1,-1
 16 28 l 25,2,-1
 12 28 l 25,3,-1
 12 4 l 25,4,-1
 16 4 l 25,5,-1
 16 0 l 25,6,-1
 4 0 l 25,7,-1
 4 4 l 25,8,-1
 8 4 l 25,9,-1
 8 28 l 25,10,-1
 4 28 l 25,11,-1
 4 32 l 29,0,-1
EndSplineSet
EndChar
StartChar: J
Encoding: 74 74 43
Width: 24
VWidth: 0
Flags: MW
LayerCount: 3
Back
Fore
SplineSet
8 32 m 25,0,-1
 20 32 l 25,1,-1
 20 28 l 25,2,-1
 16 28 l 25,3,-1
 16 5 l 25,4,-1
 11 0 l 25,5,-1
 5 0 l 25,6,-1
 0 5 l 25,7,-1
 0 12 l 25,8,-1
 4 12 l 25,9,-1
 4 6 l 25,10,-1
 6 4 l 25,11,-1
 10 4 l 25,12,-1
 12 6 l 29,13,-1
 12 28 l 25,14,-1
 8 28 l 25,15,-1
 8 32 l 25,0,-1
EndSplineSet
Layer: 2
SplineSet
8 32 m 29,0,-1
 20 32 l 25,1,-1
 20 28 l 25,2,-1
 16 28 l 25,3,-1
 16 4 l 25,4,-1
 13 4 l 25,5,-1
 12 3 l 25,6,-1
 12 0 l 25,7,-1
 4 0 l 25,8,-1
 4 3 l 25,9,-1
 3 4 l 25,10,-1
 0 4 l 25,11,-1
 0 12 l 25,12,-1
 4 12 l 25,13,-1
 4 5 l 25,14,-1
 5 4 l 25,15,-1
 11 4 l 25,16,-1
 12 5 l 25,17,-1
 12 28 l 25,18,-1
 8 28 l 25,19,-1
 8 32 l 29,0,-1
EndSplineSet
EndChar
StartChar: K
Encoding: 75 75 44
Width: 24
VWidth: 0
Flags: MW
LayerCount: 3
Back
Fore
SplineSet
0 32 m 25,0,-1
 4 32 l 25,1,-1
 4 20 l 25,2,-1
 5 20 l 25,3,-1
 17 32 l 17,4,-1
 20 32 l 1,5,-1
 20 29 l 9,6,-1
 7 16 l 29,7,-1
 20 3 l 17,8,-1
 20 0 l 1,9,-1
 17 0 l 9,10,-1
 5 12 l 25,11,-1
 4 12 l 25,12,-1
 4 0 l 25,13,-1
 0 0 l 25,14,-1
 0 32 l 25,0,-1
EndSplineSet
Layer: 2
SplineSet
0 32 m 29,0,-1
 4 32 l 25,1,-1
 4 20 l 25,2,-1
 7 20 l 25,3,-1
 8 21 l 25,4,-1
 8 24 l 25,5,-1
 11 24 l 25,6,-1
 12 25 l 25,7,-1
 12 28 l 25,8,-1
 15 28 l 25,9,-1
 16 29 l 25,10,-1
 16 32 l 25,11,-1
 20 32 l 25,12,-1
 20 28 l 25,13,-1
 17 28 l 25,14,-1
 16 27 l 25,15,-1
 16 24 l 25,16,-1
 13 24 l 25,17,-1
 12 23 l 25,18,-1
 12 20 l 25,19,-1
 9 20 l 25,20,-1
 8 19 l 25,21,-1
 8 13 l 25,22,-1
 9 12 l 25,23,-1
 12 12 l 25,24,-1
 12 9 l 25,25,-1
 13 8 l 25,26,-1
 16 8 l 25,27,-1
 16 5 l 25,28,-1
 17 4 l 25,29,-1
 20 4 l 25,30,-1
 20 0 l 25,31,-1
 16 0 l 25,32,-1
 16 3 l 25,33,-1
 15 4 l 25,34,-1
 12 4 l 25,35,-1
 12 7 l 25,36,-1
 11 8 l 25,37,-1
 8 8 l 25,38,-1
 8 11 l 25,39,-1
 7 12 l 25,40,-1
 4 12 l 25,41,-1
 4 0 l 25,42,-1
 0 0 l 25,43,-1
 0 32 l 29,0,-1
EndSplineSet
EndChar
StartChar: L
Encoding: 76 76 45
Width: 24
VWidth: 0
Flags: MW
LayerCount: 3
Back
Fore
SplineSet
0 32 m 29,0,-1
 4 32 l 25,1,-1
 4 4 l 25,2,-1
 20 4 l 25,3,-1
 20 0 l 25,4,-1
 0 0 l 25,5,-1
 0 32 l 29,0,-1
EndSplineSet
Layer: 2
SplineSet
0 32 m 29,0,-1
 4 32 l 25,1,-1
 4 4 l 25,2,-1
 20 4 l 25,3,-1
 20 0 l 25,4,-1
 0 0 l 25,5,-1
 0 32 l 29,0,-1
EndSplineSet
EndChar
StartChar: M
Encoding: 77 77 46
Width: 24
VWidth: 0
Flags: MW
LayerCount: 3
Back
Fore
SplineSet
0 32 m 25,0,-1
 4 32 l 25,1,-1
 4 30 l 25,2,-1
 10 24 l 25,3,-1
 16 30 l 29,4,-1
 16 32 l 25,5,-1
 20 32 l 25,6,-1
 20 0 l 25,7,-1
 16 0 l 25,8,-1
 16 24 l 25,9,-1
 14 24 l 25,10,-1
 12 22 l 25,11,-1
 12 16 l 25,12,-1
 8 16 l 25,13,-1
 8 22 l 25,14,-1
 6 24 l 25,15,-1
 4 24 l 25,16,-1
 4 0 l 25,17,-1
 0 0 l 25,18,-1
 0 32 l 25,0,-1
EndSplineSet
Layer: 2
SplineSet
0 32 m 29,0,-1
 4 32 l 25,1,-1
 4 28 l 25,2,-1
 8 28 l 25,3,-1
 8 25 l 25,4,-1
 9 24 l 25,5,-1
 11 24 l 25,6,-1
 12 25 l 25,7,-1
 12 28 l 25,8,-1
 16 28 l 25,9,-1
 16 32 l 25,10,-1
 20 32 l 25,11,-1
 20 0 l 25,12,-1
 16 0 l 25,13,-1
 16 24 l 25,14,-1
 13 24 l 25,15,-1
 12 23 l 25,16,-1
 12 16 l 25,17,-1
 8 16 l 25,18,-1
 8 23 l 25,19,-1
 7 24 l 25,20,-1
 4 24 l 25,21,-1
 4 0 l 25,22,-1
 0 0 l 25,23,-1
 0 32 l 29,0,-1
EndSplineSet
EndChar
StartChar: N
Encoding: 78 78 47
Width: 24
VWidth: 0
Flags: MW
LayerCount: 4
Back
Fore
SplineSet
0 32 m 25,0,-1
 4 32 l 25,1,-1
 4 26 l 29,2,-1
 16 14 l 25,3,-1
 16 32 l 25,4,-1
 20 32 l 25,5,-1
 20 0 l 25,6,-1
 16 0 l 25,7,-1
 16 9 l 25,8,-1
 4 21 l 25,9,-1
 4 0 l 25,10,-1
 0 0 l 25,11,-1
 0 32 l 25,0,-1
EndSplineSet
Layer: 2
SplineSet
0 32 m 29,0,-1
 4 32 l 25,1,-1
 4 25 l 25,2,-1
 5 24 l 25,3,-1
 8 24 l 25,4,-1
 8 21 l 25,5,-1
 9 20 l 25,6,-1
 12 20 l 25,7,-1
 12 17 l 25,8,-1
 13 16 l 25,9,-1
 16 16 l 25,10,-1
 16 32 l 25,11,-1
 20 32 l 25,12,-1
 20 0 l 25,13,-1
 16 0 l 25,14,-1
 16 12 l 25,15,-1
 12 12 l 25,16,-1
 12 15 l 25,17,-1
 11 16 l 25,18,-1
 8 16 l 25,19,-1
 8 19 l 25,20,-1
 7 20 l 25,21,-1
 4 20 l 25,22,-1
 4 0 l 25,23,-1
 0 0 l 25,24,-1
 0 32 l 29,0,-1
EndSplineSet
Layer: 3
SplineSet
0 32 m 25,0,-1
 4 32 l 25,1,-1
 4 26 l 29,2,-1
 16 14 l 25,3,-1
 16 32 l 25,4,-1
 20 32 l 25,5,-1
 20 0 l 25,6,-1
 16 0 l 25,7,-1
 16 9 l 25,8,-1
 4 21 l 25,9,-1
 4 0 l 25,10,-1
 0 0 l 25,11,-1
 0 32 l 25,0,-1
EndSplineSet
EndChar
StartChar: O
Encoding: 79 79 48
Width: 24
VWidth: 0
Flags: MW
LayerCount: 4
Back
Fore
SplineSet
4 26 m 25,0,-1
 4 6 l 25,1,-1
 6 4 l 25,2,-1
 14 4 l 25,3,-1
 16 6 l 25,4,-1
 16 26 l 25,5,-1
 14 28 l 25,6,-1
 6 28 l 25,7,-1
 4 26 l 25,0,-1
0 27 m 25,8,-1
 5 32 l 29,9,-1
 15 32 l 25,10,-1
 20 27 l 25,11,-1
 20 5 l 25,12,-1
 15 0 l 25,13,-1
 5 0 l 25,14,-1
 0 5 l 25,15,-1
 0 27 l 25,8,-1
EndSplineSet
Layer: 2
SplineSet
4 27 m 25,0,-1
 4 5 l 25,1,-1
 5 4 l 25,2,-1
 15 4 l 25,3,-1
 16 5 l 25,4,-1
 16 27 l 25,5,-1
 15 28 l 25,6,-1
 5 28 l 25,7,-1
 4 27 l 25,0,-1
0 28 m 25,8,-1
 3 28 l 25,9,-1
 4 29 l 25,10,-1
 4 32 l 25,11,-1
 16 32 l 25,12,-1
 16 29 l 25,13,-1
 17 28 l 25,14,-1
 20 28 l 25,15,-1
 20 4 l 25,16,-1
 17 4 l 25,17,-1
 16 3 l 25,18,-1
 16 0 l 25,19,-1
 4 0 l 25,20,-1
 4 3 l 25,21,-1
 3 4 l 25,22,-1
 0 4 l 25,23,-1
 0 28 l 25,8,-1
EndSplineSet
Layer: 3
SplineSet
4 26 m 25,0,-1
 4 6 l 25,1,-1
 6 4 l 25,2,-1
 14 4 l 25,3,-1
 16 6 l 25,4,-1
 16 26 l 25,5,-1
 14 28 l 25,6,-1
 6 28 l 25,7,-1
 4 26 l 25,0,-1
0 27 m 25,8,-1
 5 32 l 29,9,-1
 15 32 l 25,10,-1
 20 27 l 25,11,-1
 20 5 l 25,12,-1
 15 0 l 25,13,-1
 5 0 l 25,14,-1
 0 5 l 25,15,-1
 0 27 l 25,8,-1
EndSplineSet
EndChar
StartChar: P
Encoding: 80 80 49
Width: 24
VWidth: 0
Flags: MW
LayerCount: 3
Back
Fore
SplineSet
4 28 m 25,0,-1
 4 16 l 25,1,-1
 14 16 l 25,2,-1
 16 18 l 25,3,-1
 16 26 l 25,4,-1
 14 28 l 29,5,-1
 4 28 l 25,0,-1
0 32 m 25,6,-1
 15 32 l 25,7,-1
 20 27 l 25,8,-1
 20 17 l 25,9,-1
 15 12 l 25,10,-1
 4 12 l 25,11,-1
 4 0 l 25,12,-1
 0 0 l 25,13,-1
 0 32 l 25,6,-1
EndSplineSet
Layer: 2
SplineSet
4 28 m 25,0,-1
 4 16 l 25,1,-1
 15 16 l 25,2,-1
 16 17 l 25,3,-1
 16 27 l 25,4,-1
 15 28 l 25,5,-1
 4 28 l 25,0,-1
0 32 m 25,6,-1
 16 32 l 25,7,-1
 16 29 l 25,8,-1
 17 28 l 25,9,-1
 20 28 l 25,10,-1
 20 16 l 25,11,-1
 17 16 l 25,12,-1
 16 15 l 25,13,-1
 16 12 l 25,14,-1
 5 12 l 25,15,-1
 4 11 l 25,16,-1
 4 0 l 25,17,-1
 0 0 l 25,18,-1
 0 32 l 25,6,-1
EndSplineSet
EndChar
StartChar: Q
Encoding: 81 81 50
Width: 24
VWidth: 0
Flags: MW
LayerCount: 3
Back
Fore
SplineSet
6 28 m 25,0,-1
 4 26 l 25,1,-1
 4 6 l 25,2,-1
 6 4 l 25,3,-1
 8 4 l 25,4,-1
 8 8 l 25,5,-1
 12 8 l 25,6,-1
 12 4 l 25,7,-1
 14 4 l 25,8,-1
 16 6 l 25,9,-1
 16 26 l 25,10,-1
 14 28 l 25,11,-1
 6 28 l 25,0,-1
0 27 m 25,12,-1
 5 32 l 29,13,-1
 15 32 l 25,14,-1
 20 27 l 25,15,-1
 20 5 l 25,16,-1
 17 2 l 25,17,-1
 20 -1 l 25,18,-1
 20 -4 l 25,19,-1
 16 -4 l 25,20,-1
 16 -2 l 25,21,-1
 14 0 l 25,22,-1
 5 0 l 25,23,-1
 0 5 l 25,24,-1
 0 27 l 25,12,-1
EndSplineSet
Layer: 2
SplineSet
5 28 m 25,0,-1
 4 27 l 25,1,-1
 4 5 l 25,2,-1
 5 4 l 25,3,-1
 8 4 l 25,4,-1
 8 8 l 25,5,-1
 12 8 l 25,6,-1
 12 4 l 25,7,-1
 15 4 l 25,8,-1
 16 5 l 25,9,-1
 16 27 l 25,10,-1
 15 28 l 25,11,-1
 5 28 l 25,0,-1
0 28 m 25,12,-1
 3 28 l 25,13,-1
 4 29 l 25,14,-1
 4 32 l 25,15,-1
 16 32 l 25,16,-1
 16 29 l 25,17,-1
 17 28 l 25,18,-1
 20 28 l 25,19,-1
 20 4 l 25,20,-1
 17 4 l 25,21,-1
 16 3 l 25,22,-1
 16 1 l 25,23,-1
 17 0 l 25,24,-1
 20 0 l 25,25,-1
 20 -4 l 25,26,-1
 16 -4 l 25,27,-1
 16 -1 l 25,28,-1
 15 0 l 25,29,-1
 4 0 l 25,30,-1
 4 3 l 25,31,-1
 3 4 l 25,32,-1
 0 4 l 25,33,-1
 0 28 l 25,12,-1
EndSplineSet
EndChar
StartChar: R
Encoding: 82 82 51
Width: 24
VWidth: 0
Flags: MW
LayerCount: 4
Back
Fore
SplineSet
4 28 m 25,0,-1
 4 16 l 25,1,-1
 14 16 l 25,2,-1
 16 18 l 25,3,-1
 16 26 l 25,4,-1
 14 28 l 25,5,-1
 4 28 l 25,0,-1
0 32 m 25,6,-1
 15 32 l 25,7,-1
 20 27 l 25,8,-1
 20 17 l 25,9,-1
 15 12 l 25,10,-1
 12 12 l 25,11,-1
 20 3 l 25,12,-1
 20 0 l 25,13,-1
 17 0 l 29,14,-1
 6 12 l 25,15,-1
 4 12 l 25,16,-1
 4 0 l 25,17,-1
 0 0 l 25,18,-1
 0 32 l 25,6,-1
EndSplineSet
Layer: 2
SplineSet
4 28 m 25,0,-1
 4 16 l 25,1,-1
 15 16 l 25,2,-1
 16 17 l 25,3,-1
 16 27 l 25,4,-1
 15 28 l 25,5,-1
 4 28 l 25,0,-1
0 32 m 25,6,-1
 16 32 l 25,7,-1
 16 29 l 25,8,-1
 17 28 l 25,9,-1
 20 28 l 25,10,-1
 20 16 l 25,11,-1
 17 16 l 25,12,-1
 16 15 l 25,13,-1
 16 12 l 25,14,-1
 13 12 l 25,15,-1
 12 11 l 25,16,-1
 12 9 l 25,17,-1
 13 8 l 25,18,-1
 16 8 l 25,19,-1
 16 5 l 25,20,-1
 17 4 l 25,21,-1
 20 4 l 25,22,-1
 20 0 l 25,23,-1
 16 0 l 25,24,-1
 16 3 l 25,25,-1
 15 4 l 25,26,-1
 12 4 l 25,27,-1
 12 7 l 25,28,-1
 11 8 l 25,29,-1
 8 8 l 25,30,-1
 8 11 l 25,31,-1
 7 12 l 25,32,-1
 4 12 l 25,33,-1
 4 0 l 25,34,-1
 0 0 l 25,35,-1
 0 32 l 25,6,-1
EndSplineSet
Layer: 3
SplineSet
4 28 m 25,0,-1
 4 16 l 25,1,-1
 14 16 l 25,2,-1
 16 18 l 25,3,-1
 16 26 l 25,4,-1
 14 28 l 25,5,-1
 4 28 l 25,0,-1
0 32 m 25,6,-1
 15 32 l 25,7,-1
 20 27 l 25,8,-1
 20 17 l 25,9,-1
 15 12 l 25,10,-1
 12 12 l 25,11,-1
 20 3 l 25,12,-1
 20 0 l 25,13,-1
 17 0 l 29,14,-1
 6 12 l 25,15,-1
 4 12 l 25,16,-1
 4 0 l 25,17,-1
 0 0 l 25,18,-1
 0 32 l 25,6,-1
EndSplineSet
EndChar
StartChar: T
Encoding: 84 84 53
Width: 24
VWidth: 0
Flags: MW
LayerCount: 4
Back
Fore
SplineSet
0 32 m 29,0,-1
 20 32 l 25,1,-1
 20 28 l 25,2,-1
 12 28 l 25,3,-1
 12 0 l 25,4,-1
 8 0 l 25,5,-1
 8 28 l 25,6,-1
 0 28 l 25,7,-1
 0 32 l 29,0,-1
EndSplineSet
Layer: 2
SplineSet
0 32 m 29,0,-1
 20 32 l 25,1,-1
 20 28 l 25,2,-1
 12 28 l 25,3,-1
 12 0 l 25,4,-1
 8 0 l 25,5,-1
 8 28 l 25,6,-1
 0 28 l 25,7,-1
 0 32 l 29,0,-1
EndSplineSet
Layer: 3
SplineSet
0 32 m 29,0,-1
 20 32 l 25,1,-1
 20 28 l 25,2,-1
 12 28 l 25,3,-1
 12 0 l 25,4,-1
 8 0 l 25,5,-1
 8 28 l 25,6,-1
 0 28 l 25,7,-1
 0 32 l 29,0,-1
EndSplineSet
EndChar
StartChar: U
Encoding: 85 85 54
Width: 24
VWidth: 0
Flags: MW
LayerCount: 3
Back
Fore
SplineSet
0 32 m 25,0,-1
 4 32 l 25,1,-1
 4 6 l 25,2,-1
 6 4 l 25,3,-1
 14 4 l 25,4,-1
 16 6 l 25,5,-1
 16 32 l 25,6,-1
 20 32 l 25,7,-1
 20 5 l 25,8,-1
 15 0 l 25,9,-1
 5 0 l 25,10,-1
 0 5 l 29,11,-1
 0 32 l 25,0,-1
EndSplineSet
Layer: 2
SplineSet
0 32 m 29,0,-1
 4 32 l 25,1,-1
 4 5 l 25,2,-1
 5 4 l 25,3,-1
 15 4 l 25,4,-1
 16 5 l 25,5,-1
 16 32 l 25,6,-1
 20 32 l 25,7,-1
 20 4 l 25,8,-1
 17 4 l 25,9,-1
 16 3 l 25,10,-1
 16 0 l 25,11,-1
 4 0 l 25,12,-1
 4 3 l 25,13,-1
 3 4 l 25,14,-1
 0 4 l 25,15,-1
 0 32 l 29,0,-1
EndSplineSet
EndChar
StartChar: V
Encoding: 86 86 55
Width: 24
VWidth: 0
Flags: MW
LayerCount: 4
Back
Fore
SplineSet
0 32 m 25,0,-1
 4 32 l 25,1,-1
 4 22 l 25,2,-1
 8 10 l 29,3,-1
 10 8 l 25,4,-1
 12 10 l 25,5,-1
 16 22 l 25,6,-1
 16 32 l 25,7,-1
 20 32 l 25,8,-1
 20 21 l 25,9,-1
 16 8 l 25,10,-1
 11 0 l 25,11,-1
 9 0 l 25,12,-1
 4 9 l 25,13,-1
 0 21 l 25,14,-1
 0 32 l 25,0,-1
EndSplineSet
Layer: 2
SplineSet
0 32 m 29,0,-1
 4 32 l 25,1,-1
 4 21 l 25,2,-1
 5 20 l 25,3,-1
 8 20 l 25,4,-1
 8 9 l 25,5,-1
 9 8 l 25,6,-1
 11 8 l 25,7,-1
 12 9 l 25,8,-1
 12 20 l 25,9,-1
 15 20 l 25,10,-1
 16 21 l 25,11,-1
 16 32 l 25,12,-1
 20 32 l 25,13,-1
 20 20 l 25,14,-1
 17 20 l 25,15,-1
 16 19 l 25,16,-1
 16 8 l 25,17,-1
 13 8 l 25,18,-1
 12 7 l 25,19,-1
 12 0 l 25,20,-1
 8 0 l 25,21,-1
 8 7 l 25,22,-1
 7 8 l 25,23,-1
 4 8 l 25,24,-1
 4 19 l 25,25,-1
 3 20 l 25,26,-1
 0 20 l 25,27,-1
 0 32 l 29,0,-1
EndSplineSet
Layer: 3
SplineSet
0 32 m 25,0,-1
 4 32 l 25,1,-1
 4 22 l 25,2,-1
 8 10 l 29,3,-1
 10 8 l 25,4,-1
 12 10 l 25,5,-1
 16 22 l 25,6,-1
 16 32 l 25,7,-1
 20 32 l 25,8,-1
 20 21 l 25,9,-1
 16 8 l 25,10,-1
 11 0 l 25,11,-1
 9 0 l 25,12,-1
 4 9 l 25,13,-1
 0 21 l 25,14,-1
 0 32 l 25,0,-1
EndSplineSet
EndChar
StartChar: W
Encoding: 87 87 56
Width: 24
VWidth: 0
Flags: MW
LayerCount: 3
Back
Fore
SplineSet
0 32 m 25,0,-1
 4 32 l 25,1,-1
 4 8 l 25,2,-1
 6 8 l 25,3,-1
 8 10 l 25,4,-1
 8 16 l 25,5,-1
 12 16 l 25,6,-1
 12 10 l 25,7,-1
 14 8 l 25,8,-1
 16 8 l 25,9,-1
 16 32 l 25,10,-1
 20 32 l 25,11,-1
 20 0 l 25,12,-1
 16 0 l 25,13,-1
 16 2 l 25,14,-1
 10 8 l 25,15,-1
 4 2 l 29,16,-1
 4 0 l 25,17,-1
 0 0 l 25,18,-1
 0 32 l 25,0,-1
EndSplineSet
Layer: 2
SplineSet
0 32 m 29,0,-1
 4 32 l 25,1,-1
 4 8 l 25,2,-1
 7 8 l 25,3,-1
 8 9 l 25,4,-1
 8 16 l 25,5,-1
 12 16 l 25,6,-1
 12 9 l 25,7,-1
 13 8 l 25,8,-1
 16 8 l 25,9,-1
 16 32 l 25,10,-1
 20 32 l 25,11,-1
 20 0 l 25,12,-1
 16 0 l 25,13,-1
 16 4 l 25,14,-1
 12 4 l 25,15,-1
 12 7 l 25,16,-1
 11 8 l 25,17,-1
 9 8 l 25,18,-1
 8 7 l 25,19,-1
 8 4 l 25,20,-1
 4 4 l 25,21,-1
 4 0 l 25,22,-1
 0 0 l 25,23,-1
 0 32 l 29,0,-1
EndSplineSet
EndChar
StartChar: X
Encoding: 88 88 57
Width: 24
VWidth: 0
Flags: MW
LayerCount: 3
Back
Fore
SplineSet
0 32 m 25,0,-1
 4 32 l 25,1,-1
 4 26 l 25,2,-1
 10 20 l 29,3,-1
 16 26 l 25,4,-1
 16 32 l 25,5,-1
 20 32 l 25,6,-1
 20 25 l 25,7,-1
 12 17 l 25,8,-1
 12 15 l 25,9,-1
 20 7 l 25,10,-1
 20 0 l 25,11,-1
 16 0 l 25,12,-1
 16 6 l 25,13,-1
 10 11 l 25,14,-1
 4 6 l 25,15,-1
 4 0 l 25,16,-1
 0 0 l 25,17,-1
 0 7 l 25,18,-1
 8 15 l 25,19,-1
 8 17 l 25,20,-1
 0 25 l 25,21,-1
 0 32 l 25,0,-1
EndSplineSet
Layer: 2
SplineSet
0 32 m 29,0,-1
 4 32 l 25,1,-1
 4 25 l 25,2,-1
 5 24 l 25,3,-1
 8 24 l 25,4,-1
 8 21 l 25,5,-1
 9 20 l 25,6,-1
 11 20 l 25,7,-1
 12 21 l 25,8,-1
 12 24 l 25,9,-1
 15 24 l 25,10,-1
 16 25 l 25,11,-1
 16 32 l 25,12,-1
 20 32 l 25,13,-1
 20 24 l 25,14,-1
 17 24 l 25,15,-1
 16 23 l 25,16,-1
 16 20 l 25,17,-1
 13 20 l 25,18,-1
 12 19 l 25,19,-1
 12 13 l 25,20,-1
 13 12 l 25,21,-1
 16 12 l 25,22,-1
 16 9 l 25,23,-1
 17 8 l 25,24,-1
 20 8 l 25,25,-1
 20 0 l 25,26,-1
 16 0 l 25,27,-1
 16 7 l 25,28,-1
 15 8 l 25,29,-1
 12 8 l 25,30,-1
 12 11 l 25,31,-1
 11 12 l 25,32,-1
 9 12 l 25,33,-1
 8 11 l 25,34,-1
 8 8 l 25,35,-1
 5 8 l 25,36,-1
 4 7 l 25,37,-1
 4 0 l 25,38,-1
 0 0 l 25,39,-1
 0 8 l 25,40,-1
 3 8 l 25,41,-1
 4 9 l 25,42,-1
 4 12 l 25,43,-1
 7 12 l 25,44,-1
 8 13 l 25,45,-1
 8 19 l 25,46,-1
 7 20 l 25,47,-1
 4 20 l 25,48,-1
 4 23 l 25,49,-1
 3 24 l 25,50,-1
 0 24 l 25,51,-1
 0 32 l 29,0,-1
EndSplineSet
EndChar
StartChar: Y
Encoding: 89 89 58
Width: 24
VWidth: 0
Flags: MW
LayerCount: 4
Back
Fore
SplineSet
0 32 m 25,0,-1
 4 32 l 25,1,-1
 10 16 l 25,2,-1
 16 32 l 25,3,-1
 20 32 l 25,4,-1
 17 24 l 29,5,-1
 12 14 l 25,6,-1
 12 0 l 25,7,-1
 8 0 l 25,8,-1
 8 14 l 25,9,-1
 3 24 l 25,10,-1
 0 32 l 25,0,-1
EndSplineSet
Layer: 2
SplineSet
0 32 m 29,0,-1
 4 32 l 25,1,-1
 4 25 l 25,2,-1
 5 24 l 25,3,-1
 8 24 l 25,4,-1
 8 17 l 25,5,-1
 9 16 l 25,6,-1
 11 16 l 25,7,-1
 12 17 l 25,8,-1
 12 24 l 25,9,-1
 15 24 l 25,10,-1
 16 25 l 25,11,-1
 16 32 l 25,12,-1
 20 32 l 25,13,-1
 20 24 l 25,14,-1
 17 24 l 25,15,-1
 16 23 l 25,16,-1
 16 16 l 25,17,-1
 13 16 l 25,18,-1
 12 15 l 25,19,-1
 12 0 l 25,20,-1
 8 0 l 25,21,-1
 8 15 l 25,22,-1
 7 16 l 25,23,-1
 4 16 l 25,24,-1
 4 23 l 25,25,-1
 3 24 l 25,26,-1
 0 24 l 25,27,-1
 0 32 l 29,0,-1
EndSplineSet
Layer: 3
SplineSet
0 32 m 25,0,-1
 4 32 l 25,1,-1
 10 16 l 25,2,-1
 16 32 l 25,3,-1
 20 32 l 25,4,-1
 17 24 l 29,5,-1
 12 14 l 25,6,-1
 12 0 l 25,7,-1
 8 0 l 25,8,-1
 8 14 l 25,9,-1
 3 24 l 25,10,-1
 0 32 l 25,0,-1
EndSplineSet
EndChar
StartChar: Z
Encoding: 90 90 59
Width: 24
VWidth: 0
Flags: MW
LayerCount: 4
Back
Fore
SplineSet
0 32 m 29,0,-1
 20 32 l 29,1,-1
 20 23 l 29,2,-1
 4 8 l 29,3,-1
 4 4 l 29,4,-1
 20 4 l 29,5,-1
 20 0 l 29,6,-1
 0 0 l 29,7,-1
 0 9 l 29,8,-1
 16 24 l 29,9,-1
 16 28 l 29,10,-1
 0 28 l 29,11,-1
 0 32 l 29,0,-1
EndSplineSet
Layer: 2
SplineSet
0 32 m 29,0,-1
 20 32 l 25,1,-1
 20 24 l 25,2,-1
 17 24 l 25,3,-1
 16 23 l 25,4,-1
 16 20 l 25,5,-1
 13 20 l 25,6,-1
 12 19 l 25,7,-1
 12 16 l 25,8,-1
 9 16 l 25,9,-1
 8 15 l 25,10,-1
 8 12 l 25,11,-1
 5 12 l 25,12,-1
 4 11 l 25,13,-1
 4 4 l 25,14,-1
 20 4 l 25,15,-1
 20 0 l 25,16,-1
 0 0 l 25,17,-1
 0 12 l 25,18,-1
 3 12 l 25,19,-1
 4 13 l 25,20,-1
 4 16 l 25,21,-1
 7 16 l 25,22,-1
 8 17 l 25,23,-1
 8 20 l 25,24,-1
 11 20 l 25,25,-1
 12 21 l 25,26,-1
 12 24 l 25,27,-1
 15 24 l 25,28,-1
 16 25 l 25,29,-1
 16 28 l 25,30,-1
 0 28 l 25,31,-1
 0 32 l 29,0,-1
EndSplineSet
Layer: 3
SplineSet
0 32 m 29,0,-1
 20 32 l 29,1,-1
 20 23 l 29,2,-1
 4 8 l 29,3,-1
 4 4 l 29,4,-1
 20 4 l 29,5,-1
 20 0 l 29,6,-1
 0 0 l 29,7,-1
 0 9 l 29,8,-1
 16 24 l 29,9,-1
 16 28 l 29,10,-1
 0 28 l 29,11,-1
 0 32 l 29,0,-1
EndSplineSet
EndChar
StartChar: bracketleft
Encoding: 91 91 60
Width: 24
VWidth: 0
Flags: MW
LayerCount: 4
Back
Fore
SplineSet
4 32 m 29,0,-1
 16 32 l 25,1,-1
 16 28 l 25,2,-1
 8 28 l 25,3,-1
 8 4 l 25,4,-1
 16 4 l 25,5,-1
 16 0 l 25,6,-1
 4 0 l 25,7,-1
 4 32 l 29,0,-1
EndSplineSet
Layer: 2
SplineSet
4 32 m 29,0,-1
 16 32 l 25,1,-1
 16 28 l 25,2,-1
 8 28 l 25,3,-1
 8 4 l 25,4,-1
 16 4 l 25,5,-1
 16 0 l 25,6,-1
 4 0 l 25,7,-1
 4 32 l 29,0,-1
EndSplineSet
Layer: 3
SplineSet
4 32 m 29,0,-1
 16 32 l 25,1,-1
 16 28 l 25,2,-1
 8 28 l 25,3,-1
 8 4 l 25,4,-1
 16 4 l 25,5,-1
 16 0 l 25,6,-1
 4 0 l 25,7,-1
 4 32 l 29,0,-1
EndSplineSet
EndChar
StartChar: backslash
Encoding: 92 92 61
Width: 24
VWidth: 0
Flags: MW
LayerCount: 3
Back
Fore
SplineSet
4 32 m 29,0,-1
 8 32 l 25,1,-1
 8 26 l 25,2,-1
 10 24 l 25,3,-1
 12 18 l 25,4,-1
 14 16 l 25,5,-1
 16 10 l 25,6,-1
 18 8 l 25,7,-1
 20 0 l 25,8,-1
 16 0 l 25,9,-1
 16 6 l 25,10,-1
 14 8 l 25,11,-1
 12 14 l 25,12,-1
 10 16 l 25,13,-1
 8 22 l 25,14,-1
 6 24 l 25,15,-1
 4 32 l 29,0,-1
EndSplineSet
Layer: 2
SplineSet
4 32 m 29,0,-1
 8 32 l 25,1,-1
 8 25 l 25,2,-1
 9 24 l 25,3,-1
 12 24 l 25,4,-1
 12 17 l 25,5,-1
 13 16 l 25,6,-1
 16 16 l 25,7,-1
 16 9 l 25,8,-1
 17 8 l 25,9,-1
 20 8 l 25,10,-1
 20 0 l 25,11,-1
 16 0 l 25,12,-1
 16 7 l 25,13,-1
 15 8 l 25,14,-1
 12 8 l 25,15,-1
 12 15 l 25,16,-1
 11 16 l 25,17,-1
 8 16 l 25,18,-1
 8 23 l 25,19,-1
 7 24 l 25,20,-1
 4 24 l 25,21,-1
 4 32 l 29,0,-1
EndSplineSet
EndChar
StartChar: bracketright
Encoding: 93 93 62
Width: 24
VWidth: 0
Flags: MW
LayerCount: 3
Back
Fore
SplineSet
4 32 m 29,0,-1
 16 32 l 25,1,-1
 16 0 l 25,2,-1
 4 0 l 25,3,-1
 4 4 l 25,4,-1
 12 4 l 25,5,-1
 12 28 l 25,6,-1
 4 28 l 25,7,-1
 4 32 l 29,0,-1
EndSplineSet
Layer: 2
SplineSet
4 32 m 29,0,-1
 16 32 l 25,1,-1
 16 0 l 25,2,-1
 4 0 l 25,3,-1
 4 4 l 25,4,-1
 12 4 l 25,5,-1
 12 28 l 25,6,-1
 4 28 l 25,7,-1
 4 32 l 29,0,-1
EndSplineSet
EndChar
StartChar: asciicircum
Encoding: 94 94 63
Width: 24
VWidth: 0
Flags: MW
LayerCount: 4
Back
Fore
SplineSet
0 27 m 29,0,-1
 3 24 l 25,1,-1
 10 31 l 25,2,-1
 17 24 l 25,3,-1
 20 27 l 25,4,-1
 11 36 l 25,5,-1
 9 36 l 25,6,-1
 0 27 l 29,0,-1
EndSplineSet
Layer: 2
SplineSet
0 24 m 29,0,-1
 4 24 l 25,1,-1
 4 27 l 25,2,-1
 5 28 l 25,3,-1
 8 28 l 25,4,-1
 8 31 l 25,5,-1
 9 32 l 25,6,-1
 11 32 l 25,7,-1
 12 31 l 25,8,-1
 12 28 l 25,9,-1
 15 28 l 25,10,-1
 16 27 l 25,11,-1
 16 24 l 25,12,-1
 20 24 l 25,13,-1
 20 28 l 25,14,-1
 17 28 l 25,15,-1
 16 29 l 25,16,-1
 16 32 l 25,17,-1
 13 32 l 25,18,-1
 12 33 l 25,19,-1
 12 36 l 25,20,-1
 8 36 l 25,21,-1
 8 33 l 25,22,-1
 7 32 l 25,23,-1
 4 32 l 25,24,-1
 4 29 l 25,25,-1
 3 28 l 25,26,-1
 0 28 l 25,27,-1
 0 24 l 29,0,-1
EndSplineSet
Layer: 3
SplineSet
0 27 m 29,0,-1
 3 24 l 25,1,-1
 10 31 l 25,2,-1
 17 24 l 25,3,-1
 20 27 l 25,4,-1
 11 36 l 25,5,-1
 9 36 l 25,6,-1
 0 27 l 29,0,-1
EndSplineSet
EndChar
StartChar: grave
Encoding: 96 96 65
Width: 24
VWidth: 0
Flags: MW
LayerCount: 3
Back
Fore
SplineSet
7 40 m 25,0,-1
 12 35 l 25,1,-1
 9 32 l 29,2,-1
 4 37 l 25,3,-1
 7 40 l 25,0,-1
EndSplineSet
Layer: 2
SplineSet
4 40 m 29,0,-1
 8 40 l 25,1,-1
 8 37 l 25,2,-1
 9 36 l 25,3,-1
 12 36 l 25,4,-1
 12 32 l 25,5,-1
 8 32 l 25,6,-1
 8 35 l 25,7,-1
 7 36 l 25,8,-1
 4 36 l 25,9,-1
 4 40 l 29,0,-1
EndSplineSet
EndChar
StartChar: a
Encoding: 97 97 66
Width: 24
VWidth: 0
Flags: MW
LayerCount: 4
Back
Fore
SplineSet
6 12 m 25,0,-1
 4 10 l 25,1,-1
 4 6 l 25,2,-1
 6 4 l 29,3,-1
 16 4 l 25,4,-1
 16 12 l 25,5,-1
 6 12 l 25,0,-1
4 24 m 25,6,-1
 15 24 l 25,7,-1
 20 19 l 25,8,-1
 20 0 l 25,9,-1
 5 0 l 25,10,-1
 0 5 l 25,11,-1
 0 11 l 25,12,-1
 5 16 l 25,13,-1
 16 16 l 25,14,-1
 16 18 l 25,15,-1
 14 20 l 25,16,-1
 4 20 l 25,17,-1
 4 24 l 25,6,-1
EndSplineSet
Layer: 2
SplineSet
5 12 m 25,0,-1
 4 11 l 25,1,-1
 4 5 l 25,2,-1
 5 4 l 25,3,-1
 16 4 l 25,4,-1
 16 12 l 25,5,-1
 5 12 l 25,0,-1
4 24 m 25,6,-1
 16 24 l 25,7,-1
 16 21 l 25,8,-1
 17 20 l 25,9,-1
 20 20 l 25,10,-1
 20 0 l 25,11,-1
 4 0 l 25,12,-1
 4 3 l 25,13,-1
 3 4 l 25,14,-1
 0 4 l 25,15,-1
 0 12 l 25,16,-1
 3 12 l 25,17,-1
 4 13 l 25,18,-1
 4 16 l 25,19,-1
 16 16 l 25,20,-1
 16 19 l 25,21,-1
 15 20 l 25,22,-1
 4 20 l 25,23,-1
 4 24 l 25,6,-1
EndSplineSet
Layer: 3
SplineSet
6 12 m 25,0,-1
 4 10 l 25,1,-1
 4 6 l 25,2,-1
 6 4 l 29,3,-1
 16 4 l 25,4,-1
 16 12 l 25,5,-1
 6 12 l 25,0,-1
4 24 m 25,6,-1
 15 24 l 25,7,-1
 20 19 l 25,8,-1
 20 0 l 25,9,-1
 5 0 l 25,10,-1
 0 5 l 25,11,-1
 0 11 l 25,12,-1
 5 16 l 25,13,-1
 16 16 l 25,14,-1
 16 18 l 25,15,-1
 14 20 l 25,16,-1
 4 20 l 25,17,-1
 4 24 l 25,6,-1
EndSplineSet
EndChar
StartChar: b
Encoding: 98 98 67
Width: 24
VWidth: 0
Flags: MW
LayerCount: 3
Back
Fore
SplineSet
0 32 m 25,0,-1
 4 32 l 25,1,-1
 4 24 l 25,2,-1
 15 24 l 25,3,-1
 20 19 l 25,4,-1
 20 5 l 25,5,-1
 15 0 l 25,6,-1
 0 0 l 25,7,-1
 0 32 l 25,0,-1
4 20 m 25,8,-1
 4 4 l 25,9,-1
 14 4 l 25,10,-1
 16 6 l 25,11,-1
 16 18 l 25,12,-1
 14 20 l 29,13,-1
 4 20 l 25,8,-1
EndSplineSet
Layer: 2
SplineSet
0 32 m 25,0,-1
 4 32 l 25,1,-1
 4 24 l 25,2,-1
 16 24 l 25,3,-1
 16 21 l 25,4,-1
 17 20 l 25,5,-1
 20 20 l 25,6,-1
 20 4 l 25,7,-1
 17 4 l 25,8,-1
 16 3 l 25,9,-1
 16 0 l 25,10,-1
 0 0 l 25,11,-1
 0 32 l 25,0,-1
4 20 m 25,12,-1
 4 4 l 25,13,-1
 15 4 l 25,14,-1
 16 5 l 25,15,-1
 16 19 l 25,16,-1
 15 20 l 25,17,-1
 4 20 l 25,12,-1
EndSplineSet
EndChar
StartChar: c
Encoding: 99 99 68
Width: 24
VWidth: 0
Flags: MW
LayerCount: 4
Back
Fore
SplineSet
5 24 m 29,0,-1
 15 24 l 25,1,-1
 20 19 l 25,2,-1
 20 16 l 25,3,-1
 16 16 l 25,4,-1
 16 18 l 25,5,-1
 14 20 l 25,6,-1
 6 20 l 25,7,-1
 4 18 l 25,8,-1
 4 6 l 25,9,-1
 6 4 l 25,10,-1
 14 4 l 25,11,-1
 16 6 l 25,12,-1
 16 8 l 25,13,-1
 20 8 l 25,14,-1
 20 5 l 25,15,-1
 15 0 l 25,16,-1
 5 0 l 25,17,-1
 0 5 l 25,18,-1
 0 19 l 25,19,-1
 5 24 l 29,0,-1
EndSplineSet
Layer: 2
SplineSet
4 24 m 29,0,-1
 16 24 l 25,1,-1
 16 21 l 25,2,-1
 16 21 l 25,3,-1
 17 20 l 25,4,-1
 20 20 l 25,5,-1
 20 16 l 25,6,-1
 16 16 l 25,7,-1
 16 19 l 25,8,-1
 15 20 l 25,9,-1
 5 20 l 25,10,-1
 4 19 l 25,11,-1
 4 5 l 25,12,-1
 5 4 l 25,13,-1
 15 4 l 25,14,-1
 16 5 l 25,15,-1
 16 8 l 25,16,-1
 20 8 l 25,17,-1
 20 4 l 25,18,-1
 17 4 l 25,19,-1
 16 3 l 25,20,-1
 16 0 l 25,21,-1
 4 0 l 25,22,-1
 4 3 l 25,23,-1
 3 4 l 25,24,-1
 0 4 l 25,25,-1
 0 20 l 25,26,-1
 3 20 l 25,27,-1
 4 21 l 25,28,-1
 4 24 l 29,0,-1
EndSplineSet
Layer: 3
SplineSet
5 24 m 29,0,-1
 15 24 l 25,1,-1
 20 19 l 25,2,-1
 20 16 l 25,3,-1
 16 16 l 25,4,-1
 16 18 l 25,5,-1
 14 20 l 25,6,-1
 6 20 l 25,7,-1
 4 18 l 25,8,-1
 4 6 l 25,9,-1
 6 4 l 25,10,-1
 14 4 l 25,11,-1
 16 6 l 25,12,-1
 16 8 l 25,13,-1
 20 8 l 25,14,-1
 20 5 l 25,15,-1
 15 0 l 25,16,-1
 5 0 l 25,17,-1
 0 5 l 25,18,-1
 0 19 l 25,19,-1
 5 24 l 29,0,-1
EndSplineSet
EndChar
StartChar: d
Encoding: 100 100 69
Width: 24
VWidth: 0
Flags: MW
LayerCount: 3
Back
Fore
SplineSet
16 20 m 25,0,-1
 6 20 l 25,1,-1
 4 18 l 25,2,-1
 4 6 l 25,3,-1
 6 4 l 25,4,-1
 16 4 l 29,5,-1
 16 20 l 25,0,-1
16 32 m 25,6,-1
 20 32 l 25,7,-1
 20 0 l 25,8,-1
 5 0 l 25,9,-1
 0 5 l 25,10,-1
 0 19 l 25,11,-1
 5 24 l 25,12,-1
 16 24 l 25,13,-1
 16 32 l 25,6,-1
EndSplineSet
Layer: 2
SplineSet
16 20 m 25,0,-1
 5 20 l 25,1,-1
 4 19 l 25,2,-1
 4 5 l 25,3,-1
 5 4 l 25,4,-1
 16 4 l 25,5,-1
 16 20 l 25,0,-1
16 32 m 25,6,-1
 20 32 l 25,7,-1
 20 0 l 25,8,-1
 4 0 l 25,9,-1
 4 3 l 25,10,-1
 3 4 l 25,11,-1
 0 4 l 25,12,-1
 0 20 l 25,13,-1
 3 20 l 25,14,-1
 4 21 l 25,15,-1
 4 24 l 25,16,-1
 16 24 l 25,17,-1
 16 32 l 25,6,-1
EndSplineSet
EndChar
StartChar: e
Encoding: 101 101 70
Width: 24
VWidth: 0
Flags: MW
LayerCount: 4
Back
Fore
SplineSet
6 20 m 25,0,-1
 4 18 l 25,1,-1
 4 16 l 25,2,-1
 16 16 l 25,3,-1
 16 18 l 25,4,-1
 14 20 l 29,5,-1
 6 20 l 25,0,-1
5 24 m 25,6,-1
 15 24 l 25,7,-1
 20 19 l 25,8,-1
 20 12 l 25,9,-1
 4 12 l 25,10,-1
 4 6 l 25,11,-1
 6 4 l 25,12,-1
 20 4 l 25,13,-1
 20 0 l 25,14,-1
 5 0 l 25,15,-1
 0 5 l 25,16,-1
 0 19 l 25,17,-1
 5 24 l 25,6,-1
EndSplineSet
Layer: 2
SplineSet
5 20 m 25,0,-1
 4 19 l 25,1,-1
 4 16 l 25,2,-1
 16 16 l 25,3,-1
 16 19 l 25,4,-1
 15 20 l 25,5,-1
 5 20 l 25,0,-1
4 24 m 25,6,-1
 16 24 l 25,7,-1
 16 21 l 25,8,-1
 17 20 l 25,9,-1
 20 20 l 25,10,-1
 20 12 l 25,11,-1
 4 12 l 25,12,-1
 4 5 l 25,13,-1
 5 4 l 25,14,-1
 20 4 l 25,15,-1
 20 0 l 25,16,-1
 4 0 l 25,17,-1
 4 3 l 25,18,-1
 3 4 l 25,19,-1
 0 4 l 25,20,-1
 0 20 l 25,21,-1
 3 20 l 25,22,-1
 4 21 l 25,23,-1
 4 24 l 25,6,-1
EndSplineSet
Layer: 3
SplineSet
6 20 m 25,0,-1
 4 18 l 25,1,-1
 4 16 l 25,2,-1
 16 16 l 25,3,-1
 16 18 l 25,4,-1
 14 20 l 29,5,-1
 6 20 l 25,0,-1
5 24 m 25,6,-1
 15 24 l 25,7,-1
 20 19 l 25,8,-1
 20 12 l 25,9,-1
 4 12 l 25,10,-1
 4 6 l 25,11,-1
 6 4 l 25,12,-1
 20 4 l 25,13,-1
 20 0 l 25,14,-1
 5 0 l 25,15,-1
 0 5 l 25,16,-1
 0 19 l 25,17,-1
 5 24 l 25,6,-1
EndSplineSet
EndChar
StartChar: f
Encoding: 102 102 71
Width: 24
VWidth: 0
Flags: MW
LayerCount: 3
Back
Fore
SplineSet
8 27 m 25,0,-1
 13 32 l 25,1,-1
 20 32 l 25,2,-1
 20 28 l 25,3,-1
 14 28 l 25,4,-1
 12 26 l 25,5,-1
 12 24 l 25,6,-1
 16 24 l 25,7,-1
 16 20 l 25,8,-1
 12 20 l 25,9,-1
 12 0 l 25,10,-1
 8 0 l 25,11,-1
 8 20 l 25,12,-1
 4 20 l 29,13,-1
 4 24 l 25,14,-1
 8 24 l 25,15,-1
 8 27 l 25,0,-1
EndSplineSet
Layer: 2
SplineSet
8 28 m 29,0,-1
 11 28 l 25,1,-1
 12 29 l 25,2,-1
 12 32 l 25,3,-1
 20 32 l 25,4,-1
 20 28 l 25,5,-1
 13 28 l 25,6,-1
 12 27 l 25,7,-1
 12 24 l 25,8,-1
 16 24 l 25,9,-1
 16 20 l 25,10,-1
 12 20 l 25,11,-1
 12 0 l 25,12,-1
 8 0 l 25,13,-1
 8 20 l 25,14,-1
 4 20 l 25,15,-1
 4 24 l 25,16,-1
 8 24 l 25,17,-1
 8 28 l 29,0,-1
EndSplineSet
EndChar
StartChar: g
Encoding: 103 103 72
Width: 24
VWidth: 0
Flags: MW
LayerCount: 3
Back
Fore
SplineSet
16 20 m 25,0,-1
 6 20 l 25,1,-1
 4 18 l 25,2,-1
 4 6 l 25,3,-1
 6 4 l 29,4,-1
 16 4 l 25,5,-1
 16 20 l 25,0,-1
5 24 m 25,6,-1
 20 24 l 25,7,-1
 20 -3 l 25,8,-1
 15 -8 l 25,9,-1
 4 -8 l 25,10,-1
 4 -4 l 25,11,-1
 14 -4 l 25,12,-1
 16 -2 l 25,13,-1
 16 0 l 25,14,-1
 5 0 l 25,15,-1
 0 5 l 25,16,-1
 0 19 l 25,17,-1
 5 24 l 25,6,-1
EndSplineSet
Layer: 2
SplineSet
16 20 m 25,0,-1
 5 20 l 25,1,-1
 4 19 l 25,2,-1
 4 5 l 25,3,-1
 5 4 l 25,4,-1
 16 4 l 25,5,-1
 16 20 l 25,0,-1
4 24 m 25,6,-1
 20 24 l 25,7,-1
 20 -4 l 25,8,-1
 17 -4 l 25,9,-1
 16 -5 l 25,10,-1
 16 -8 l 25,11,-1
 4 -8 l 25,12,-1
 4 -4 l 25,13,-1
 15 -4 l 25,14,-1
 16 -3 l 25,15,-1
 16 0 l 25,16,-1
 4 0 l 25,17,-1
 4 3 l 25,18,-1
 3 4 l 25,19,-1
 0 4 l 25,20,-1
 0 20 l 25,21,-1
 3 20 l 25,22,-1
 4 21 l 25,23,-1
 4 24 l 25,6,-1
EndSplineSet
EndChar
StartChar: h
Encoding: 104 104 73
Width: 24
VWidth: 0
Flags: MW
LayerCount: 4
Back
Fore
SplineSet
0 32 m 25,0,-1
 4 32 l 25,1,-1
 4 24 l 25,2,-1
 15 24 l 25,3,-1
 20 19 l 25,4,-1
 20 0 l 25,5,-1
 16 0 l 25,6,-1
 16 18 l 25,7,-1
 14 20 l 25,8,-1
 4 20 l 29,9,-1
 4 0 l 25,10,-1
 0 0 l 25,11,-1
 0 32 l 25,0,-1
EndSplineSet
Layer: 2
SplineSet
0 32 m 29,0,-1
 4 32 l 25,1,-1
 4 24 l 25,2,-1
 16 24 l 25,3,-1
 16 21 l 25,4,-1
 17 20 l 25,5,-1
 20 20 l 25,6,-1
 20 0 l 25,7,-1
 16 0 l 25,8,-1
 16 19 l 25,9,-1
 15 20 l 25,10,-1
 4 20 l 25,11,-1
 4 0 l 25,12,-1
 0 0 l 25,13,-1
 0 32 l 29,0,-1
EndSplineSet
Layer: 3
SplineSet
0 32 m 25,0,-1
 4 32 l 25,1,-1
 4 24 l 25,2,-1
 15 24 l 25,3,-1
 20 19 l 25,4,-1
 20 0 l 25,5,-1
 16 0 l 25,6,-1
 16 18 l 25,7,-1
 14 20 l 25,8,-1
 4 20 l 29,9,-1
 4 0 l 25,10,-1
 0 0 l 25,11,-1
 0 32 l 25,0,-1
EndSplineSet
EndChar
StartChar: j
Encoding: 106 106 75
Width: 24
VWidth: 0
Flags: MW
LayerCount: 4
Back
Fore
SplineSet
12 24 m 25,0,-1
 20 24 l 25,1,-1
 20 -3 l 25,2,-1
 15 -8 l 25,3,-1
 9 -8 l 25,4,-1
 4 -3 l 25,5,-1
 4 0 l 25,6,-1
 8 0 l 25,7,-1
 8 -2 l 25,8,-1
 10 -4 l 25,9,-1
 14 -4 l 25,10,-1
 16 -2 l 29,11,-1
 16 20 l 25,12,-1
 12 20 l 25,13,-1
 12 24 l 25,0,-1
16 36 m 25,14,-1
 20 36 l 25,15,-1
 20 28 l 25,16,-1
 16 28 l 25,17,-1
 16 36 l 25,14,-1
EndSplineSet
Layer: 2
SplineSet
12 24 m 29,0,-1
 20 24 l 25,1,-1
 20 -4 l 25,2,-1
 17 -4 l 25,3,-1
 16 -5 l 25,4,-1
 16 -8 l 25,5,-1
 8 -8 l 25,6,-1
 8 -5 l 25,7,-1
 7 -4 l 25,8,-1
 4 -4 l 25,9,-1
 4 0 l 25,10,-1
 8 0 l 25,11,-1
 8 -3 l 25,12,-1
 9 -4 l 25,13,-1
 15 -4 l 25,14,-1
 16 -3 l 25,15,-1
 16 20 l 25,16,-1
 12 20 l 25,17,-1
 12 24 l 29,0,-1
16 36 m 25,18,-1
 20 36 l 25,19,-1
 20 28 l 25,20,-1
 16 28 l 25,21,-1
 16 36 l 25,18,-1
EndSplineSet
Layer: 3
SplineSet
12 24 m 25,0,-1
 20 24 l 25,1,-1
 20 -3 l 25,2,-1
 15 -8 l 25,3,-1
 9 -8 l 25,4,-1
 4 -3 l 25,5,-1
 4 0 l 25,6,-1
 8 0 l 25,7,-1
 8 -2 l 25,8,-1
 10 -4 l 25,9,-1
 14 -4 l 25,10,-1
 16 -2 l 29,11,-1
 16 20 l 25,12,-1
 12 20 l 25,13,-1
 12 24 l 25,0,-1
16 36 m 25,14,-1
 20 36 l 25,15,-1
 20 28 l 25,16,-1
 16 28 l 25,17,-1
 16 36 l 25,14,-1
EndSplineSet
EndChar
StartChar: k
Encoding: 107 107 76
Width: 24
VWidth: 0
Flags: MW
LayerCount: 3
Back
Fore
SplineSet
4 32 m 25,0,-1
 8 32 l 25,1,-1
 8 16 l 25,2,-1
 9 16 l 25,3,-1
 17 24 l 17,4,-1
 20 24 l 1,5,-1
 20 21 l 9,6,-1
 12 13 l 25,7,-1
 12 11 l 25,8,-1
 20 3 l 17,9,-1
 20 0 l 5,10,-1
 17 0 l 9,11,-1
 9 8 l 25,12,-1
 8 8 l 25,13,-1
 8 0 l 25,14,-1
 4 0 l 25,15,-1
 4 32 l 25,0,-1
EndSplineSet
Layer: 2
SplineSet
4 32 m 29,0,-1
 8 32 l 25,1,-1
 8 16 l 25,2,-1
 11 16 l 25,3,-1
 12 17 l 25,4,-1
 12 20 l 25,5,-1
 15 20 l 25,6,-1
 16 21 l 25,7,-1
 16 24 l 25,8,-1
 20 24 l 25,9,-1
 20 20 l 25,10,-1
 17 20 l 25,11,-1
 16 19 l 25,12,-1
 16 16 l 25,13,-1
 13 16 l 25,14,-1
 12 15 l 25,15,-1
 12 9 l 25,16,-1
 13 8 l 25,17,-1
 16 8 l 25,18,-1
 16 5 l 25,19,-1
 17 4 l 25,20,-1
 20 4 l 25,21,-1
 20 0 l 25,22,-1
 16 0 l 25,23,-1
 16 3 l 25,24,-1
 15 4 l 25,25,-1
 12 4 l 25,26,-1
 12 7 l 25,27,-1
 11 8 l 25,28,-1
 8 8 l 25,29,-1
 8 0 l 25,30,-1
 4 0 l 25,31,-1
 4 32 l 29,0,-1
EndSplineSet
EndChar
StartChar: l
Encoding: 108 108 77
Width: 24
VWidth: 0
Flags: MW
LayerCount: 3
Back
Fore
SplineSet
4 32 m 29,0,-1
 12 32 l 25,1,-1
 12 4 l 25,2,-1
 16 4 l 25,3,-1
 16 0 l 25,4,-1
 4 0 l 25,5,-1
 4 4 l 25,6,-1
 8 4 l 25,7,-1
 8 28 l 25,8,-1
 4 28 l 25,9,-1
 4 32 l 29,0,-1
EndSplineSet
Layer: 2
SplineSet
4 32 m 29,0,-1
 12 32 l 25,1,-1
 12 4 l 25,2,-1
 16 4 l 25,3,-1
 16 0 l 25,4,-1
 4 0 l 25,5,-1
 4 4 l 25,6,-1
 8 4 l 25,7,-1
 8 28 l 25,8,-1
 4 28 l 25,9,-1
 4 32 l 29,0,-1
EndSplineSet
EndChar
StartChar: n
Encoding: 110 110 79
Width: 24
VWidth: 0
Flags: MW
LayerCount: 3
Back
Fore
SplineSet
0 24 m 25,0,-1
 15 24 l 25,1,-1
 20 19 l 25,2,-1
 20 0 l 25,3,-1
 16 0 l 25,4,-1
 16 18 l 25,5,-1
 14 20 l 29,6,-1
 4 20 l 25,7,-1
 4 0 l 25,8,-1
 0 0 l 25,9,-1
 0 24 l 25,0,-1
EndSplineSet
Layer: 2
SplineSet
0 24 m 29,0,-1
 16 24 l 25,1,-1
 16 21 l 25,2,-1
 17 20 l 25,3,-1
 20 20 l 25,4,-1
 20 0 l 25,5,-1
 16 0 l 25,6,-1
 16 19 l 25,7,-1
 15 20 l 25,8,-1
 4 20 l 25,9,-1
 4 0 l 25,10,-1
 0 0 l 25,11,-1
 0 24 l 29,0,-1
EndSplineSet
EndChar
StartChar: p
Encoding: 112 112 81
Width: 24
VWidth: 0
Flags: MW
LayerCount: 4
Back
Fore
SplineSet
4 20 m 25,0,-1
 4 4 l 25,1,-1
 14 4 l 25,2,-1
 16 6 l 25,3,-1
 16 18 l 25,4,-1
 14 20 l 25,5,-1
 4 20 l 25,0,-1
0 24 m 25,6,-1
 15 24 l 25,7,-1
 20 19 l 25,8,-1
 20 5 l 25,9,-1
 15 0 l 29,10,-1
 4 0 l 25,11,-1
 4 -8 l 25,12,-1
 0 -8 l 25,13,-1
 0 24 l 25,6,-1
EndSplineSet
Layer: 2
SplineSet
4 20 m 29,0,-1
 4 4 l 25,1,-1
 15 4 l 25,2,-1
 16 5 l 25,3,-1
 16 19 l 25,4,-1
 15 20 l 25,5,-1
 4 20 l 29,0,-1
0 24 m 25,6,-1
 16 24 l 25,7,-1
 16 21 l 25,8,-1
 17 20 l 25,9,-1
 20 20 l 25,10,-1
 20 4 l 25,11,-1
 17 4 l 25,12,-1
 16 3 l 25,13,-1
 16 0 l 25,14,-1
 4 0 l 25,15,-1
 4 -8 l 25,16,-1
 0 -8 l 25,17,-1
 0 24 l 25,6,-1
EndSplineSet
Layer: 3
SplineSet
4 20 m 25,0,-1
 4 4 l 25,1,-1
 14 4 l 25,2,-1
 16 6 l 25,3,-1
 16 18 l 25,4,-1
 14 20 l 25,5,-1
 4 20 l 25,0,-1
0 24 m 25,6,-1
 15 24 l 25,7,-1
 20 19 l 25,8,-1
 20 5 l 25,9,-1
 15 0 l 29,10,-1
 4 0 l 25,11,-1
 4 -8 l 25,12,-1
 0 -8 l 25,13,-1
 0 24 l 25,6,-1
EndSplineSet
EndChar
StartChar: r
Encoding: 114 114 83
Width: 24
VWidth: 0
Flags: MW
LayerCount: 3
Back
Fore
SplineSet
0 24 m 25,0,-1
 0 0 l 25,1,-1
 4 0 l 25,2,-1
 4 14 l 25,3,-1
 10 20 l 29,4,-1
 20 20 l 25,5,-1
 20 24 l 25,6,-1
 9 24 l 25,7,-1
 4 20 l 25,8,-1
 4 24 l 25,9,-1
 0 24 l 25,0,-1
EndSplineSet
Layer: 2
SplineSet
0 24 m 29,0,-1
 0 0 l 25,1,-1
 4 0 l 25,2,-1
 4 16 l 25,3,-1
 8 16 l 25,4,-1
 8 19 l 25,5,-1
 9 20 l 25,6,-1
 20 20 l 25,7,-1
 20 24 l 25,8,-1
 8 24 l 25,9,-1
 8 21 l 25,10,-1
 7 20 l 25,11,-1
 4 20 l 25,12,-1
 4 24 l 25,13,-1
 0 24 l 29,0,-1
EndSplineSet
EndChar
StartChar: s
Encoding: 115 115 84
Width: 24
VWidth: 0
Flags: MW
LayerCount: 4
Back
Fore
SplineSet
5 24 m 29,0,-1
 20 24 l 25,1,-1
 20 20 l 25,2,-1
 6 20 l 25,3,-1
 4 18 l 25,4,-1
 6 16 l 25,5,-1
 15 16 l 25,6,-1
 20 11 l 25,7,-1
 20 4 l 25,8,-1
 15 0 l 25,9,-1
 0 0 l 25,10,-1
 0 4 l 25,11,-1
 14 4 l 25,12,-1
 16 6 l 25,13,-1
 16 10 l 25,14,-1
 14 12 l 25,15,-1
 5 12 l 25,16,-1
 0 17 l 25,17,-1
 0 19 l 25,18,-1
 5 24 l 29,0,-1
EndSplineSet
Layer: 2
SplineSet
4 24 m 29,0,-1
 20 24 l 25,1,-1
 20 20 l 25,2,-1
 5 20 l 25,3,-1
 4 19 l 25,4,-1
 4 17 l 25,5,-1
 5 16 l 25,6,-1
 16 16 l 25,7,-1
 16 13 l 25,8,-1
 17 12 l 25,9,-1
 20 12 l 25,10,-1
 20 4 l 25,11,-1
 17 4 l 25,12,-1
 16 3 l 25,13,-1
 16 0 l 25,14,-1
 0 0 l 25,15,-1
 0 4 l 25,16,-1
 15 4 l 25,17,-1
 16 5 l 25,18,-1
 16 11 l 25,19,-1
 15 12 l 25,20,-1
 4 12 l 25,21,-1
 4 15 l 25,22,-1
 3 16 l 25,23,-1
 0 16 l 25,24,-1
 0 20 l 25,25,-1
 3 20 l 25,26,-1
 4 21 l 25,27,-1
 4 24 l 29,0,-1
EndSplineSet
Layer: 3
SplineSet
5 24 m 29,0,-1
 20 24 l 25,1,-1
 20 20 l 25,2,-1
 6 20 l 25,3,-1
 4 18 l 25,4,-1
 6 16 l 25,5,-1
 15 16 l 25,6,-1
 20 11 l 25,7,-1
 20 4 l 25,8,-1
 15 0 l 25,9,-1
 0 0 l 25,10,-1
 0 4 l 25,11,-1
 14 4 l 25,12,-1
 16 6 l 25,13,-1
 16 10 l 25,14,-1
 14 12 l 25,15,-1
 5 12 l 25,16,-1
 0 17 l 25,17,-1
 0 19 l 25,18,-1
 5 24 l 29,0,-1
EndSplineSet
EndChar
StartChar: t
Encoding: 116 116 85
Width: 24
VWidth: 0
Flags: MW
LayerCount: 4
Back
Fore
SplineSet
8 32 m 25,0,-1
 12 32 l 25,1,-1
 12 24 l 25,2,-1
 16 24 l 25,3,-1
 16 20 l 25,4,-1
 12 20 l 25,5,-1
 12 6 l 25,6,-1
 14 4 l 25,7,-1
 20 4 l 25,8,-1
 20 0 l 25,9,-1
 13 0 l 25,10,-1
 8 5 l 29,11,-1
 8 20 l 25,12,-1
 4 20 l 25,13,-1
 4 24 l 25,14,-1
 8 24 l 25,15,-1
 8 32 l 25,0,-1
EndSplineSet
Layer: 2
SplineSet
8 32 m 29,0,-1
 12 32 l 25,1,-1
 12 24 l 25,2,-1
 16 24 l 25,3,-1
 16 20 l 25,4,-1
 12 20 l 25,5,-1
 12 5 l 25,6,-1
 13 4 l 25,7,-1
 20 4 l 25,8,-1
 20 0 l 25,9,-1
 12 0 l 25,10,-1
 12 3 l 25,11,-1
 11 4 l 25,12,-1
 8 4 l 25,13,-1
 8 20 l 25,14,-1
 4 20 l 25,15,-1
 4 24 l 25,16,-1
 8 24 l 25,17,-1
 8 32 l 29,0,-1
EndSplineSet
Layer: 3
SplineSet
8 32 m 25,0,-1
 12 32 l 25,1,-1
 12 24 l 25,2,-1
 16 24 l 25,3,-1
 16 20 l 25,4,-1
 12 20 l 25,5,-1
 12 6 l 25,6,-1
 14 4 l 25,7,-1
 20 4 l 25,8,-1
 20 0 l 25,9,-1
 13 0 l 25,10,-1
 8 5 l 29,11,-1
 8 20 l 25,12,-1
 4 20 l 25,13,-1
 4 24 l 25,14,-1
 8 24 l 25,15,-1
 8 32 l 25,0,-1
EndSplineSet
EndChar
StartChar: u
Encoding: 117 117 86
Width: 24
VWidth: 0
Flags: MW
LayerCount: 4
Back
Fore
SplineSet
0 24 m 29,0,-1
 4 24 l 25,1,-1
 4 6 l 25,2,-1
 6 4 l 25,3,-1
 16 4 l 25,4,-1
 16 24 l 25,5,-1
 20 24 l 25,6,-1
 20 0 l 25,7,-1
 5 0 l 25,8,-1
 0 5 l 25,9,-1
 0 24 l 29,0,-1
EndSplineSet
Layer: 2
SplineSet
0 24 m 29,0,-1
 4 24 l 25,1,-1
 4 5 l 25,2,-1
 5 4 l 25,3,-1
 16 4 l 25,4,-1
 16 24 l 25,5,-1
 20 24 l 25,6,-1
 20 0 l 25,7,-1
 4 0 l 25,8,-1
 4 3 l 25,9,-1
 3 4 l 25,10,-1
 0 4 l 25,11,-1
 0 24 l 29,0,-1
EndSplineSet
Layer: 3
SplineSet
0 24 m 29,0,-1
 4 24 l 25,1,-1
 4 6 l 25,2,-1
 6 4 l 25,3,-1
 16 4 l 25,4,-1
 16 24 l 25,5,-1
 20 24 l 25,6,-1
 20 0 l 25,7,-1
 5 0 l 25,8,-1
 0 5 l 25,9,-1
 0 24 l 29,0,-1
EndSplineSet
EndChar
StartChar: v
Encoding: 118 118 87
Width: 24
VWidth: 0
Flags: MW
LayerCount: 3
Back
Fore
SplineSet
0 24 m 25,0,-1
 3 24 l 25,1,-1
 10 8 l 29,2,-1
 17 24 l 25,3,-1
 20 24 l 25,4,-1
 19 16 l 25,5,-1
 11 0 l 25,6,-1
 9 0 l 25,7,-1
 1 16 l 25,8,-1
 0 24 l 25,0,-1
EndSplineSet
Layer: 2
SplineSet
0 24 m 29,0,-1
 4 24 l 25,1,-1
 4 17 l 25,2,-1
 5 16 l 25,3,-1
 8 16 l 25,4,-1
 8 9 l 25,5,-1
 9 8 l 25,6,-1
 11 8 l 25,7,-1
 12 9 l 25,8,-1
 12 16 l 25,9,-1
 15 16 l 25,10,-1
 16 17 l 25,11,-1
 16 24 l 25,12,-1
 20 24 l 25,13,-1
 20 16 l 25,14,-1
 17 16 l 25,15,-1
 16 15 l 25,16,-1
 16 8 l 25,17,-1
 13 8 l 25,18,-1
 12 7 l 25,19,-1
 12 0 l 25,20,-1
 8 0 l 25,21,-1
 8 7 l 25,22,-1
 7 8 l 25,23,-1
 4 8 l 25,24,-1
 4 15 l 25,25,-1
 3 16 l 25,26,-1
 0 16 l 25,27,-1
 0 24 l 29,0,-1
EndSplineSet
EndChar
StartChar: w
Encoding: 119 119 88
Width: 24
VWidth: 0
Flags: MW
LayerCount: 4
Back
Fore
SplineSet
0 24 m 25,0,-1
 4 24 l 25,1,-1
 4 6 l 25,2,-1
 6 4 l 25,3,-1
 8 4 l 25,4,-1
 8 16 l 25,5,-1
 12 16 l 25,6,-1
 12 4 l 25,7,-1
 14 4 l 25,8,-1
 16 6 l 25,9,-1
 16 24 l 25,10,-1
 20 24 l 25,11,-1
 20 5 l 25,12,-1
 15 0 l 25,13,-1
 5 0 l 25,14,-1
 0 5 l 29,15,-1
 0 24 l 25,0,-1
EndSplineSet
Layer: 2
SplineSet
0 24 m 29,0,-1
 4 24 l 25,1,-1
 4 5 l 25,2,-1
 5 4 l 25,3,-1
 8 4 l 25,4,-1
 8 16 l 25,5,-1
 12 16 l 25,6,-1
 12 4 l 25,7,-1
 15 4 l 25,8,-1
 16 5 l 25,9,-1
 16 24 l 25,10,-1
 20 24 l 25,11,-1
 20 4 l 25,12,-1
 17 4 l 25,13,-1
 16 3 l 25,14,-1
 16 0 l 25,15,-1
 4 0 l 25,16,-1
 4 3 l 25,17,-1
 3 4 l 25,18,-1
 0 4 l 25,19,-1
 0 24 l 29,0,-1
EndSplineSet
Layer: 3
SplineSet
0 24 m 25,0,-1
 4 24 l 25,1,-1
 4 6 l 25,2,-1
 6 4 l 25,3,-1
 8 4 l 25,4,-1
 8 16 l 25,5,-1
 12 16 l 25,6,-1
 12 4 l 25,7,-1
 14 4 l 25,8,-1
 16 6 l 25,9,-1
 16 24 l 25,10,-1
 20 24 l 25,11,-1
 20 5 l 25,12,-1
 15 0 l 25,13,-1
 5 0 l 25,14,-1
 0 5 l 29,15,-1
 0 24 l 25,0,-1
EndSplineSet
EndChar
StartChar: x
Encoding: 120 120 89
Width: 24
VWidth: 0
Flags: MW
LayerCount: 4
Back
Fore
SplineSet
0 24 m 25,0,-1
 3 24 l 25,1,-1
 8 18 l 25,2,-1
 10 16 l 25,3,-1
 12 18 l 25,4,-1
 17 24 l 25,5,-1
 20 24 l 25,6,-1
 20 20 l 25,7,-1
 18 20 l 25,8,-1
 12 14 l 25,9,-1
 12 11 l 25,10,-1
 18 4 l 25,11,-1
 20 4 l 25,12,-1
 20 0 l 25,13,-1
 17 0 l 25,14,-1
 12 6 l 25,15,-1
 10 8 l 25,16,-1
 8 6 l 25,17,-1
 3 0 l 29,18,-1
 0 0 l 25,19,-1
 0 4 l 25,20,-1
 2 4 l 25,21,-1
 4 6 l 25,22,-1
 8 10 l 25,23,-1
 8 14 l 25,24,-1
 6 16 l 25,25,-1
 4 18 l 25,26,-1
 2 20 l 25,27,-1
 0 20 l 25,28,-1
 0 24 l 25,0,-1
EndSplineSet
Layer: 2
SplineSet
0 24 m 29,0,-1
 4 24 l 25,1,-1
 4 21 l 25,2,-1
 5 20 l 25,3,-1
 8 20 l 25,4,-1
 8 17 l 25,5,-1
 9 16 l 25,6,-1
 11 16 l 25,7,-1
 12 17 l 25,8,-1
 12 20 l 25,9,-1
 15 20 l 25,10,-1
 16 21 l 25,11,-1
 16 24 l 25,12,-1
 20 24 l 25,13,-1
 20 20 l 25,14,-1
 17 20 l 25,15,-1
 16 19 l 25,16,-1
 16 16 l 25,17,-1
 13 16 l 25,18,-1
 12 15 l 25,19,-1
 12 9 l 25,20,-1
 13 8 l 25,21,-1
 16 8 l 25,22,-1
 16 5 l 25,23,-1
 17 4 l 25,24,-1
 20 4 l 25,25,-1
 20 0 l 25,26,-1
 16 0 l 25,27,-1
 16 3 l 25,28,-1
 15 4 l 25,29,-1
 12 4 l 25,30,-1
 12 7 l 25,31,-1
 11 8 l 25,32,-1
 9 8 l 25,33,-1
 8 7 l 25,34,-1
 8 4 l 25,35,-1
 5 4 l 25,36,-1
 4 3 l 25,37,-1
 4 0 l 25,38,-1
 0 0 l 25,39,-1
 0 4 l 25,40,-1
 3 4 l 25,41,-1
 4 5 l 25,42,-1
 4 8 l 25,43,-1
 7 8 l 25,44,-1
 8 9 l 25,45,-1
 8 15 l 25,46,-1
 7 16 l 25,47,-1
 4 16 l 25,48,-1
 4 19 l 25,49,-1
 3 20 l 25,50,-1
 0 20 l 25,51,-1
 0 24 l 29,0,-1
EndSplineSet
Layer: 3
SplineSet
0 24 m 25,0,-1
 3 24 l 25,1,-1
 8 18 l 25,2,-1
 10 16 l 25,3,-1
 12 18 l 25,4,-1
 17 24 l 25,5,-1
 20 24 l 25,6,-1
 20 20 l 25,7,-1
 18 20 l 25,8,-1
 12 14 l 25,9,-1
 12 11 l 25,10,-1
 18 4 l 25,11,-1
 20 4 l 25,12,-1
 20 0 l 25,13,-1
 17 0 l 25,14,-1
 12 6 l 25,15,-1
 10 8 l 25,16,-1
 8 6 l 25,17,-1
 3 0 l 29,18,-1
 0 0 l 25,19,-1
 0 4 l 25,20,-1
 2 4 l 25,21,-1
 4 6 l 25,22,-1
 8 10 l 25,23,-1
 8 14 l 25,24,-1
 6 16 l 25,25,-1
 4 18 l 25,26,-1
 2 20 l 25,27,-1
 0 20 l 25,28,-1
 0 24 l 25,0,-1
EndSplineSet
EndChar
StartChar: y
Encoding: 121 121 90
Width: 24
VWidth: 0
Flags: MW
LayerCount: 3
Back
Fore
SplineSet
0 24 m 25,0,-1
 4 24 l 25,1,-1
 4 6 l 25,2,-1
 6 4 l 25,3,-1
 16 4 l 25,4,-1
 16 24 l 25,5,-1
 20 24 l 25,6,-1
 20 -3 l 25,7,-1
 15 -8 l 25,8,-1
 4 -8 l 25,9,-1
 4 -4 l 25,10,-1
 14 -4 l 25,11,-1
 16 -2 l 25,12,-1
 16 0 l 25,13,-1
 5 0 l 25,14,-1
 0 5 l 29,15,-1
 0 24 l 25,0,-1
EndSplineSet
Layer: 2
SplineSet
0 24 m 29,0,-1
 4 24 l 25,1,-1
 4 5 l 25,2,-1
 5 4 l 25,3,-1
 16 4 l 25,4,-1
 16 24 l 25,5,-1
 20 24 l 25,6,-1
 20 -4 l 25,7,-1
 17 -4 l 25,8,-1
 16 -5 l 25,9,-1
 16 -8 l 25,10,-1
 4 -8 l 25,11,-1
 4 -4 l 25,12,-1
 15 -4 l 25,13,-1
 16 -3 l 25,14,-1
 16 0 l 25,15,-1
 4 0 l 25,16,-1
 4 3 l 25,17,-1
 3 4 l 25,18,-1
 0 4 l 25,19,-1
 0 24 l 29,0,-1
EndSplineSet
EndChar
StartChar: z
Encoding: 122 122 91
Width: 24
VWidth: 0
Flags: MW
LayerCount: 3
Back
Fore
SplineSet
0 24 m 25,0,-1
 20 24 l 25,1,-1
 20 20 l 25,2,-1
 6 4 l 25,3,-1
 20 4 l 25,4,-1
 20 0 l 25,5,-1
 0 0 l 25,6,-1
 0 4 l 25,7,-1
 14 20 l 13,8,-1
 0 20 l 25,9,-1
 0 24 l 25,0,-1
EndSplineSet
Layer: 2
SplineSet
0 24 m 29,0,-1
 20 24 l 25,1,-1
 20 20 l 25,2,-1
 16 20 l 25,3,-1
 16 16 l 25,4,-1
 13 16 l 25,5,-1
 12 15 l 25,6,-1
 12 12 l 25,7,-1
 9 12 l 25,8,-1
 8 11 l 25,9,-1
 8 8 l 25,10,-1
 5 8 l 25,11,-1
 4 7 l 25,12,-1
 4 4 l 25,13,-1
 20 4 l 25,14,-1
 20 0 l 25,15,-1
 0 0 l 25,16,-1
 0 8 l 25,17,-1
 3 8 l 25,18,-1
 4 9 l 25,19,-1
 4 12 l 25,20,-1
 7 12 l 25,21,-1
 8 13 l 25,22,-1
 8 16 l 25,23,-1
 11 16 l 25,24,-1
 12 17 l 25,25,-1
 12 20 l 25,26,-1
 0 20 l 25,27,-1
 0 24 l 29,0,-1
EndSplineSet
EndChar
StartChar: braceleft
Encoding: 123 123 92
Width: 24
VWidth: 0
Flags: MW
LayerCount: 4
Back
Fore
SplineSet
20 32 m 25,0,-1
 20 28 l 25,1,-1
 14 28 l 25,2,-1
 12 26 l 25,3,-1
 12 21 l 25,4,-1
 9 18 l 25,5,-1
 12 15 l 25,6,-1
 12 6 l 25,7,-1
 14 4 l 25,8,-1
 20 4 l 25,9,-1
 20 0 l 25,10,-1
 13 0 l 25,11,-1
 8 5 l 25,12,-1
 8 14 l 25,13,-1
 6 16 l 25,14,-1
 4 16 l 25,15,-1
 4 20 l 25,16,-1
 6 20 l 25,17,-1
 8 22 l 25,18,-1
 8 27 l 25,19,-1
 13 32 l 29,20,-1
 20 32 l 25,0,-1
EndSplineSet
Layer: 2
SplineSet
20 32 m 29,0,-1
 20 28 l 25,1,-1
 13 28 l 25,2,-1
 12 27 l 25,3,-1
 12 20 l 25,4,-1
 9 20 l 25,5,-1
 8 19 l 25,6,-1
 8 17 l 25,7,-1
 9 16 l 25,8,-1
 12 16 l 25,9,-1
 12 5 l 25,10,-1
 13 4 l 25,11,-1
 20 4 l 25,12,-1
 20 0 l 25,13,-1
 12 0 l 25,14,-1
 12 3 l 25,15,-1
 11 4 l 25,16,-1
 8 4 l 25,17,-1
 8 15 l 25,18,-1
 7 16 l 25,19,-1
 4 16 l 25,20,-1
 4 20 l 25,21,-1
 7 20 l 25,22,-1
 8 21 l 25,23,-1
 8 28 l 25,24,-1
 11 28 l 25,25,-1
 12 29 l 25,26,-1
 12 32 l 25,27,-1
 20 32 l 29,0,-1
EndSplineSet
Layer: 3
SplineSet
20 32 m 25,0,-1
 20 28 l 25,1,-1
 14 28 l 25,2,-1
 12 26 l 25,3,-1
 12 21 l 25,4,-1
 9 18 l 25,5,-1
 12 15 l 25,6,-1
 12 6 l 25,7,-1
 14 4 l 25,8,-1
 20 4 l 25,9,-1
 20 0 l 25,10,-1
 13 0 l 25,11,-1
 8 5 l 25,12,-1
 8 14 l 25,13,-1
 6 16 l 25,14,-1
 4 16 l 25,15,-1
 4 20 l 25,16,-1
 6 20 l 25,17,-1
 8 22 l 25,18,-1
 8 27 l 25,19,-1
 13 32 l 29,20,-1
 20 32 l 25,0,-1
EndSplineSet
EndChar
StartChar: bar
Encoding: 124 124 93
Width: 24
VWidth: 0
Flags: MW
LayerCount: 4
Back
Fore
SplineSet
8 32 m 25,0,-1
 12 32 l 29,1,-1
 12 0 l 25,2,-1
 8 0 l 25,3,-1
 8 32 l 25,0,-1
EndSplineSet
Layer: 2
SplineSet
8 32 m 29,0,-1
 12 32 l 25,1,-1
 12 0 l 25,2,-1
 8 0 l 25,3,-1
 8 32 l 29,0,-1
EndSplineSet
Layer: 3
SplineSet
8 32 m 25,0,-1
 12 32 l 29,1,-1
 12 0 l 25,2,-1
 8 0 l 25,3,-1
 8 32 l 25,0,-1
EndSplineSet
EndChar
StartChar: braceright
Encoding: 125 125 94
Width: 24
VWidth: 0
Flags: MW
LayerCount: 3
Back
Fore
SplineSet
4 32 m 25,0,-1
 11 32 l 25,1,-1
 16 27 l 25,2,-1
 16 22 l 25,3,-1
 18 20 l 25,4,-1
 20 20 l 25,5,-1
 20 16 l 25,6,-1
 18 16 l 25,7,-1
 16 14 l 25,8,-1
 16 5 l 25,9,-1
 11 0 l 25,10,-1
 4 0 l 25,11,-1
 4 4 l 25,12,-1
 10 4 l 25,13,-1
 12 6 l 25,14,-1
 12 15 l 25,15,-1
 15 18 l 25,16,-1
 12 21 l 25,17,-1
 12 26 l 25,18,-1
 10 28 l 25,19,-1
 4 28 l 29,20,-1
 4 32 l 25,0,-1
EndSplineSet
Layer: 2
SplineSet
4 32 m 29,0,-1
 12 32 l 25,1,-1
 12 29 l 25,2,-1
 13 28 l 25,3,-1
 16 28 l 25,4,-1
 16 21 l 25,5,-1
 17 20 l 25,6,-1
 20 20 l 25,7,-1
 20 16 l 25,8,-1
 17 16 l 25,9,-1
 16 15 l 25,10,-1
 16 4 l 25,11,-1
 13 4 l 25,12,-1
 12 3 l 25,13,-1
 12 0 l 25,14,-1
 4 0 l 25,15,-1
 4 4 l 25,16,-1
 11 4 l 25,17,-1
 12 5 l 25,18,-1
 12 16 l 25,19,-1
 15 16 l 25,20,-1
 16 17 l 25,21,-1
 16 19 l 25,22,-1
 15 20 l 25,23,-1
 12 20 l 25,24,-1
 12 27 l 25,25,-1
 11 28 l 25,26,-1
 4 28 l 25,27,-1
 4 32 l 29,0,-1
EndSplineSet
EndChar
StartChar: asciitilde
Encoding: 126 126 95
Width: 24
VWidth: 0
Flags: MW
LayerCount: 3
Back
Fore
SplineSet
0 31 m 25,0,-1
 5 36 l 25,1,-1
 7 36 l 25,2,-1
 12 31 l 25,3,-1
 12 30 l 25,4,-1
 14 28 l 25,5,-1
 16 30 l 25,6,-1
 16 36 l 25,7,-1
 20 36 l 25,8,-1
 20 29 l 25,9,-1
 15 24 l 25,10,-1
 13 24 l 25,11,-1
 8 29 l 25,12,-1
 8 30 l 25,13,-1
 6 32 l 25,14,-1
 4 30 l 29,15,-1
 4 24 l 25,16,-1
 0 24 l 25,17,-1
 0 31 l 25,0,-1
EndSplineSet
Layer: 2
SplineSet
0 32 m 29,0,-1
 3 32 l 25,1,-1
 4 33 l 25,2,-1
 4 36 l 25,3,-1
 8 36 l 25,4,-1
 8 33 l 25,5,-1
 9 32 l 25,6,-1
 12 32 l 25,7,-1
 12 29 l 25,8,-1
 13 28 l 25,9,-1
 15 28 l 25,10,-1
 16 29 l 25,11,-1
 16 36 l 25,12,-1
 20 36 l 25,13,-1
 20 28 l 25,14,-1
 17 28 l 25,15,-1
 16 27 l 25,16,-1
 16 24 l 25,17,-1
 12 24 l 25,18,-1
 12 27 l 25,19,-1
 11 28 l 25,20,-1
 8 28 l 25,21,-1
 8 31 l 25,22,-1
 7 32 l 25,23,-1
 5 32 l 25,24,-1
 4 31 l 25,25,-1
 4 24 l 25,26,-1
 0 24 l 25,27,-1
 0 32 l 29,0,-1
EndSplineSet
EndChar
